<svg xmlns="http://www.w3.org/2000/svg" xmlns:xlink="http://www.w3.org/1999/xlink" width="421" height="406" viewBox="0 0 421 406"><view id="ic_fechar" viewBox="36 358 30 30"/><svg xmlns="http://www.w3.org/2000/svg" width="30" height="30" viewBox="-10 -10 30 30" x="36" y="358"><title>Fechar</title><path d="M3.475 4.89L.293 1.706A1 1 0 1 1 1.707.293L4.89 3.475 8.07.293a1 1 0 1 1 1.415 1.414L6.303 4.89l3.182 3.182A1 1 0 1 1 8.07 9.486L4.89 6.303 1.707 9.485A1 1 0 1 1 .293 8.07l3.182-3.18z" fill="#757575" fill-rule="evenodd"/></svg><view id="ico--stars" viewBox="0 358 36 48"/><svg xmlns="http://www.w3.org/2000/svg" width="36" height="48" viewBox="-10 -10 36 48" y="358"><title>Group</title><g fill="none" fill-rule="evenodd"><path d="M10.112 19.598c-.133-1.558-.53-4.26-.6-4.684-.09-.553-.654-.91-1.24-.914a1.1 1.1 0 0 0-1.098.9c-.072.435-.566 3.25-.71 4.788-1.575-.4-3.987-.892-4.39-.97-.563-.104-1.1.29-1.303.828a1.072 1.072 0 0 0 .49 1.316c.342.187 2.3 1.28 3.746 1.994a105.41 105.41 0 0 0-2.203 3.37c-.294.48-.1 1.11.35 1.48a1.127 1.127 0 0 0 1.433 0c.34-.286 2.56-2.126 3.684-3.213 1.113 1.104 3.26 2.982 3.597 3.27.434.365 1.1.286 1.552-.08.45-.367.5-.967.247-1.38-.196-.323-1.303-2.174-2.182-3.497a104.35 104.35 0 0 0 3.827-1.935c.5-.27.653-.91.455-1.45-.197-.54-.76-.79-1.242-.7-.403.075-2.83.505-4.413.878z" fill="#FFC600"/><path d="M10.112 5.598c-.133-1.558-.53-4.26-.6-4.684C9.422.36 8.858.004 8.272 0a1.1 1.1 0 0 0-1.098.9c-.072.435-.566 3.25-.71 4.788-1.575-.4-3.987-.892-4.39-.97-.563-.104-1.1.29-1.303.828a1.072 1.072 0 0 0 .49 1.316c.342.187 2.3 1.28 3.746 1.994a105.41 105.41 0 0 0-2.203 3.37c-.294.48-.1 1.11.35 1.48a1.127 1.127 0 0 0 1.433 0c.34-.286 2.56-2.126 3.684-3.213 1.113 1.104 3.26 2.982 3.597 3.27.434.365 1.1.286 1.552-.08.45-.367.5-.967.247-1.38-.196-.323-1.303-2.174-2.182-3.497a104.35 104.35 0 0 0 3.827-1.935c.5-.27.653-.91.455-1.45-.197-.54-.76-.79-1.242-.7-.403.075-2.83.505-4.413.878z" fill="#E0E1E2"/></g></svg><view id="sprite_navmenu_icons" viewBox="0 0 421 358"/><svg xmlns="http://www.w3.org/2000/svg" style="background-color:#ffcd00" width="421" height="358" viewBox="-10 -10 421 358"><view id="capplestore" viewBox="218 84 99 42"/><svg width="99" height="42" viewBox="-10 -10 99 42" x="218" y="84"><title>Group 4</title><path d="M12.543 10.267c-.02-2.29 1.885-3.402 1.972-3.454-1.08-1.565-2.752-1.778-3.34-1.795-1.405-.147-2.767.836-3.483.836-.73 0-1.832-.822-3.02-.798-1.528.023-2.958.903-3.743 2.27-1.62 2.786-.413 6.88 1.14 9.132.773 1.104 1.68 2.335 2.866 2.29 1.16-.045 1.594-.734 2.995-.734 1.39 0 1.796.735 3.006.707 1.245-.016 2.03-1.105 2.778-2.22.896-1.262 1.256-2.51 1.27-2.572-.028-.01-2.418-.916-2.442-3.66m-2.285-6.732c.625-.776 1.052-1.832.933-2.904-.903.04-2.033.622-2.684 1.38-.576.67-1.09 1.766-.957 2.798 1.013.075 2.055-.51 2.706-1.274M29.354 18.59h-1.622l-.888-2.775h-3.09l-.845 2.776h-1.58l3.06-9.45h1.89l3.073 9.45zm-2.778-3.94l-.804-2.467c-.085-.253-.245-.847-.48-1.78h-.028a75.63 75.63 0 0 1-.45 1.78l-.79 2.467h2.552zm10.634.45c0 1.16-.317 2.075-.95 2.747-.568.6-1.273.898-2.113.898-.908 0-1.56-.322-1.957-.967v3.576h-1.523v-7.338c0-.728-.02-1.474-.056-2.24h1.34l.086 1.08h.028c.508-.814 1.28-1.22 2.313-1.22.81 0 1.484.317 2.023.952.54.637.81 1.474.81 2.512zm-1.552.055c0-.663-.15-1.21-.45-1.64a1.564 1.564 0 0 0-1.327-.674c-.374 0-.715.127-1.02.374a1.717 1.717 0 0 0-.6.976c-.046.185-.07.338-.07.46v1.136c0 .495.153.913.46 1.255.304.343.7.514 1.19.514.573 0 1.02-.22 1.34-.66.32-.438.48-1.018.48-1.738zm9.435-.055c0 1.16-.317 2.075-.95 2.747-.568.6-1.272.898-2.114.898-.91 0-1.56-.322-1.96-.967v3.576h-1.52v-7.338c0-.728-.02-1.474-.057-2.24h1.34l.084 1.08h.03c.506-.814 1.276-1.22 2.31-1.22.81 0 1.485.317 2.026.952.538.637.81 1.474.81 2.512zm-1.553.055c0-.663-.15-1.21-.452-1.64a1.56 1.56 0 0 0-1.324-.674c-.376 0-.717.127-1.023.374a1.72 1.72 0 0 0-.597.976c-.046.185-.07.338-.07.46v1.136c0 .495.152.913.457 1.255.304.343.7.514 1.19.514.576 0 1.022-.22 1.34-.66.32-.438.48-1.018.48-1.738zm10.366.785c0 .805-.282 1.46-.845 1.964-.616.55-1.48.827-2.587.827-1.023 0-1.843-.194-2.46-.587l.35-1.262c.67.394 1.402.59 2.2.59.575 0 1.022-.13 1.34-.385.32-.258.48-.6.48-1.03a1.32 1.32 0 0 0-.395-.97c-.263-.26-.7-.503-1.31-.726-1.665-.62-2.497-1.52-2.497-2.71 0-.774.295-1.41.88-1.906C49.65 9.25 50.428 9 51.396 9c.865 0 1.586.15 2.158.45l-.382 1.234c-.54-.29-1.145-.435-1.825-.435-.537 0-.96.13-1.26.392a1.122 1.122 0 0 0-.383.858c0 .372.147.682.44.924.252.225.714.468 1.38.73.82.328 1.42.71 1.806 1.15.387.438.58.985.58 1.64m5.046-3.032h-1.68v3.31c0 .84.297 1.26.89 1.26.272 0 .498-.022.676-.07l.042 1.15c-.3.11-.694.168-1.183.168-.604 0-1.073-.184-1.413-.548-.34-.365-.508-.977-.508-1.837V12.91h-1v-1.137h1v-1.248l1.494-.45v1.698h1.68v1.14m7.558 2.214c0 1.048-.3 1.908-.903 2.58-.63.692-1.468 1.038-2.51 1.038-1.01 0-1.81-.332-2.406-.995-.598-.663-.896-1.5-.896-2.51 0-1.055.308-1.92.922-2.593.616-.672 1.446-1.01 2.49-1.01 1.006 0 1.813.334 2.425.996.584.644.875 1.475.875 2.494zm-1.578.035c0-.624-.136-1.16-.408-1.608-.32-.54-.777-.81-1.37-.81-.608 0-1.077.27-1.395.81-.272.448-.407.993-.407 1.637 0 .627.135 1.163.41 1.61.328.54.787.812 1.383.812.58 0 1.038-.276 1.37-.824.278-.46.42-.998.42-1.624zm6.53-2.054a2.666 2.666 0 0 0-.48-.042c-.536 0-.95.2-1.24.603-.255.353-.38.802-.38 1.344v3.576H67.84v-4.668c0-.785-.015-1.5-.044-2.145h1.326l.056 1.304h.042c.16-.447.414-.81.76-1.08.34-.242.707-.364 1.102-.364.14 0 .268.01.38.028l.002 1.445m6.81 1.75c0 .272-.018.5-.056.688H73.65c.017.673.24 1.19.663 1.544.385.317.884.476 1.494.476.677 0 1.294-.107 1.85-.323l.237 1.05c-.648.282-1.415.422-2.297.422-1.063 0-1.898-.31-2.505-.93-.605-.623-.91-1.46-.91-2.504 0-1.027.283-1.883.848-2.565.592-.73 1.39-1.093 2.397-1.093.987 0 1.735.364 2.242 1.093.4.577.603 1.293.603 2.143zm-1.452-.392c.01-.45-.09-.836-.296-1.164-.263-.422-.67-.632-1.212-.632-.5 0-.904.205-1.212.617a2.257 2.257 0 0 0-.45 1.176h3.17zm-53.21-9.46c.214 0 .388-.023.525-.067.244-.08.444-.24.6-.472a1.94 1.94 0 0 0 .27-.72c.03-.175.046-.337.046-.486 0-.574-.114-1.02-.343-1.338-.228-.318-.596-.477-1.103-.477h-1.115V5.01h1.12zM21.86.904h1.88c.637 0 1.132.226 1.484.68.313.407.47.93.47 1.568 0 .493-.093.938-.278 1.336-.326.7-.887 1.053-1.683 1.053H21.86V.903zm4.567 1.272h.578v3.367h-.578V2.177zm0-1.272h.578v.644h-.578V.903zm1.775 3.578c.017.19.064.335.142.436.143.18.39.272.745.272a1.1 1.1 0 0 0 .554-.137.456.456 0 0 0 .24-.425.363.363 0 0 0-.193-.33c-.08-.047-.243-.1-.485-.16l-.452-.115c-.288-.072-.5-.152-.638-.24-.244-.154-.366-.366-.366-.638 0-.32.114-.58.345-.777.23-.198.54-.297.93-.297.51 0 .877.15 1.102.45.14.188.21.392.206.61h-.537a.658.658 0 0 0-.136-.35c-.13-.15-.356-.224-.678-.224-.215 0-.378.04-.488.122a.386.386 0 0 0-.166.325c0 .147.073.265.218.354.084.053.208.1.373.14l.373.09c.41.1.683.196.822.29.22.144.33.372.33.684 0 .3-.113.56-.34.78-.23.22-.578.328-1.045.328-.502 0-.86-.114-1.068-.342a1.296 1.296 0 0 1-.337-.847h.547zm4.985.346c.176-.224.264-.557.264-1 0-.27-.037-.5-.115-.694-.148-.372-.417-.56-.81-.56-.392 0-.662.198-.807.592-.078.21-.117.477-.117.8 0 .262.04.484.118.668.147.35.417.524.808.524a.81.81 0 0 0 .662-.333zm-2.133-2.654h.552v.45a1.38 1.38 0 0 1 .373-.358 1.2 1.2 0 0 1 .674-.19c.383 0 .708.146.976.44.268.294.402.713.402 1.26 0 .735-.193 1.262-.578 1.578-.244.2-.53.3-.853.3-.253 0-.466-.056-.64-.168a1.477 1.477 0 0 1-.337-.325V6.89h-.568V2.178zm5.76 2.573c.14-.287.21-.604.21-.953 0-.316-.052-.573-.153-.77-.16-.313-.434-.47-.825-.47-.348 0-.6.134-.758.4-.158.265-.237.585-.237.96 0 .36.078.66.236.9.158.24.408.36.75.36.378 0 .637-.143.777-.428zm.35-2.25c.302.29.452.716.452 1.28 0 .546-.132.997-.398 1.35-.265.358-.676.536-1.234.536-.466 0-.835-.157-1.11-.472-.273-.315-.41-.737-.41-1.268 0-.568.145-1.02.433-1.358.29-.338.676-.506 1.162-.506.434 0 .803.145 1.104.435zm1.128-.34h.54v.48c.16-.197.33-.34.51-.426.178-.086.377-.13.596-.13.48 0 .804.168.972.503.093.183.14.445.14.786v2.17h-.58v-2.13c0-.207-.03-.373-.09-.5-.1-.21-.284-.316-.55-.316a1.12 1.12 0 0 0-.33.04.854.854 0 0 0-.412.28.837.837 0 0 0-.185.345c-.028.12-.042.29-.042.51v1.772h-.567V2.162zm3.777.016h.576v3.367h-.578V2.177zM43.075.8l-.843.913h-.436l.58-.913h.7zm.887 1.362l.904 2.754.944-2.754h.623l-1.276 3.382h-.606l-1.247-3.382h.66zm5.063.093c.225.112.397.258.515.437.114.17.19.37.228.597.033.154.05.402.05.743h-2.48c.01.344.092.62.244.826.15.207.386.31.704.31.297 0 .534-.098.71-.293a.99.99 0 0 0 .215-.395h.56a1.177 1.177 0 0 1-.147.415 1.477 1.477 0 0 1-.28.374 1.325 1.325 0 0 1-.64.34 1.88 1.88 0 0 1-.464.053c-.42 0-.778-.153-1.07-.46-.294-.306-.44-.735-.44-1.286 0-.544.147-.985.442-1.324.295-.34.68-.508 1.156-.508.24 0 .472.056.697.17zm.208 1.328a1.473 1.473 0 0 0-.16-.59c-.156-.275-.417-.41-.78-.41a.87.87 0 0 0-.658.28c-.177.19-.27.43-.28.72h1.878zm1.3-2.678h.57v4.64h-.57V.905zm3.22 1.257h.54v.48c.16-.198.327-.34.506-.427.18-.086.378-.13.597-.13.48 0 .804.168.973.503.092.183.14.445.14.786v2.17h-.58V3.412c0-.206-.03-.372-.09-.5-.102-.21-.285-.315-.55-.315a1.12 1.12 0 0 0-.332.04.854.854 0 0 0-.41.28.837.837 0 0 0-.185.345c-.03.12-.043.29-.043.51v1.772h-.568V2.162zm4.21 2.87c.12.095.263.142.427.142.2 0 .396-.046.583-.138a.782.782 0 0 0 .474-.755v-.456a.973.973 0 0 1-.27.11c-.108.03-.215.05-.32.063l-.345.045c-.205.028-.36.07-.463.13-.176.1-.263.257-.263.474 0 .164.06.294.18.388zm1.198-1.538c.13-.017.218-.07.262-.164a.5.5 0 0 0 .038-.218c0-.194-.07-.334-.207-.42-.138-.09-.336-.133-.592-.133-.297 0-.508.08-.632.24-.07.087-.113.22-.134.393h-.53c.01-.417.145-.707.405-.87.26-.163.563-.245.906-.245.398 0 .72.075.97.227.246.15.37.387.37.707v1.95c0 .058.01.105.036.14.025.037.076.055.154.055a.865.865 0 0 0 .186-.02v.42c-.088.025-.156.04-.202.047-.046.006-.11.01-.19.01-.195 0-.337-.07-.426-.21a.804.804 0 0 1-.098-.31 1.446 1.446 0 0 1-.5.393 1.544 1.544 0 0 1-.716.168c-.313 0-.57-.096-.77-.286a.95.95 0 0 1-.297-.716c0-.314.1-.557.295-.73.195-.173.452-.28.77-.32l.907-.113z" fill="#FFF" fill-rule="evenodd"/></svg><view id="carrow-down" viewBox="312 297.8 25 29"/><svg width="25" height="29" viewBox="-10 -10 25 29" x="312" y="297.8"><title>Group 5</title><path d="M.79 6.5l2 2m2.002-2l-2 2m0-8v8" stroke="#FFF" fill="none" stroke-linecap="round" stroke-linejoin="round"/></svg><view id="cic--lupa-o" viewBox="264 126 44 44"/><svg viewBox="-10 -10 44 44" width="44" height="44" x="264" y="126"><path d="M8.955 15.12c1.716 0 3.174-.6 4.375-1.8 1.2-1.202 1.802-2.66 1.802-4.376 0-1.716-.6-3.175-1.802-4.376-1.2-1.2-2.66-1.8-4.375-1.8-1.716 0-3.174.6-4.376 1.8-1.203 1.2-1.803 2.66-1.803 4.376 0 1.716.6 3.174 1.8 4.375 1.203 1.2 2.66 1.8 4.377 1.8zm8.236 0l6.82 6.82L21.954 24l-6.82-6.82v-1.094l-.386-.386c-1.63 1.415-3.56 2.123-5.79 2.123-2.49 0-4.602-.858-6.34-2.574C.88 13.532.012 11.43.012 8.942s.87-4.6 2.607-6.338C4.353.87 6.466 0 8.954 0s4.59.87 6.305 2.606c1.716 1.737 2.574 3.85 2.574 6.338 0 2.23-.708 4.16-2.123 5.79l.388.387h1.094z" fill="#C3C3C3" fill-rule="evenodd"/></svg><view id="ico--lupa-mb" viewBox="264 126 44 44"/><svg viewBox="-10 -10 44 44" width="33" height="33" x="200" y="250"><path d="M8.955 15.12c1.716 0 3.174-.6 4.375-1.8 1.2-1.202 1.802-2.66 1.802-4.376 0-1.716-.6-3.175-1.802-4.376-1.2-1.2-2.66-1.8-4.375-1.8-1.716 0-3.174.6-4.376 1.8-1.203 1.2-1.803 2.66-1.803 4.376 0 1.716.6 3.174 1.8 4.375 1.203 1.2 2.66 1.8 4.377 1.8zm8.236 0l6.82 6.82L21.954 24l-6.82-6.82v-1.094l-.386-.386c-1.63 1.415-3.56 2.123-5.79 2.123-2.49 0-4.602-.858-6.34-2.574C.88 13.532.012 11.43.012 8.942s.87-4.6 2.607-6.338C4.353.87 6.466 0 8.954 0s4.59.87 6.305 2.606c1.716 1.737 2.574 3.85 2.574 6.338 0 2.23-.708 4.16-2.123 5.79l.388.387h1.094z" fill="#fff" fill-rule="evenodd"/></svg><view id="cic_home_fogao" viewBox="218 126 46 45"/><svg viewBox="-10 -10 46 45" width="46" height="45" x="218" y="126"><path d="M0 25h26V6H0v19zm15.5-2.557h-5v-1.578h5v1.58zM4.35 10.28h17.3v8.466H4.35V10.28zM0 5h26V0H0v5zm2.815-3.212h20.153v1.717H2.815V1.788z" fill="#757575" fill-rule="evenodd"/></svg><view id="cic_home_geladeira" viewBox="326 119 38 53"/><svg viewBox="-10 -10 38 53" width="38" height="53" x="326" y="119"><g fill="none" fill-rule="evenodd"><path d="M0 1.564C0 .7.706 0 1.566 0h15.14A1.3 1.3 0 0 1 18 1.295v9.618H0v-9.35zM16.986 30.89A1.307 1.307 0 0 0 18 29.624V12.472H0v16.892a1.56 1.56 0 0 0 1.014 1.457v1.43c0 .42.34.75.76.75.424 0 .76-.335.76-.75v-1.33h12.93v1.328c0 .42.34.752.76.752a.755.755 0 0 0 .762-.752V30.89z" fill="#757575"/><rect fill="#FFF" x="2.535" y="2.598" width="1.775" height="6.236" rx=".781"/><rect fill="#FFF" x="2.535" y="14.551" width="1.775" height="7.016" rx=".781"/></g></svg><view id="cic_home_lavadora" viewBox="326 172 45 50"/><svg viewBox="-10 -10 45 50" width="45" height="50" x="326" y="172"><path d="M12.5 27.042c2.583 0 4.788-.88 6.615-2.64 1.828-1.76 2.742-3.886 2.742-6.374 0-2.488-.914-4.613-2.742-6.373-1.827-1.76-4.032-2.64-6.615-2.64s-4.788.88-6.615 2.64c-1.828 1.76-2.742 3.885-2.742 6.373 0 2.488.914 4.613 2.742 6.373 1.827 1.763 4.032 2.643 6.615 2.643zM4.678 2.958c-.438 0-.804.152-1.096.457-.293.306-.44.67-.44 1.092 0 .423.147.775.44 1.056.292.282.658.423 1.096.423.44 0 .817-.14 1.133-.423.32-.28.478-.633.478-1.056 0-.422-.16-.786-.476-1.092a1.57 1.57 0 0 0-1.132-.457zm4.68 0c-.44 0-.805.152-1.098.457-.292.306-.438.67-.438 1.092 0 .423.146.775.438 1.056.293.282.658.423 1.097.423.438 0 .816-.14 1.133-.423a1.35 1.35 0 0 0 .475-1.056c0-.422-.158-.786-.475-1.092a1.578 1.578 0 0 0-1.133-.457zM21.858 0c.875 0 1.62.282 2.227.845.61.563.914 1.268.914 2.113v24.084c0 .845-.306 1.55-.915 2.113-.61.563-1.352.845-2.23.845H3.145c-.878 0-1.62-.282-2.23-.845C.304 28.592 0 27.887 0 27.042V2.958c0-.845.305-1.55.914-2.113C1.524.282 2.266 0 3.144 0h18.713zM8.112 22.254l8.772-8.522c1.218 1.174 1.827 2.594 1.827 4.26 0 1.668-.61 3.088-1.827 4.262-1.218 1.173-2.68 1.76-4.386 1.76s-3.17-.587-4.387-1.76z" fill="#757575" fill-rule="evenodd"/></svg><view id="cic_home_tenis" viewBox="326 73 55 46"/><svg viewBox="-10 -10 55 46" width="55" height="46" x="326" y="73"><path d="M34.776 21.292c.094.26.106.507.108.75a5.358 5.358 0 0 1-.29 1.81c-.15.427-.42.74-.808.965-.56.326-1.175.48-1.804.59-.413.075-.83.127-1.25.142-.356.01-.55-.26-.438-.598.03-.092.066-.183.117-.323-.35.23-.673.403-.953.63-.35.286-.726.33-1.144.245-.12-.025-.246-.033-.367-.058-.258-.053-.395-.273-.326-.526.036-.133.087-.263.146-.436-.306.2-.587.365-.85.556a.698.698 0 0 1-.646.124c-.25-.07-.506-.117-.757-.18-.287-.072-.41-.298-.32-.577.045-.143.096-.284.16-.472-.297.194-.56.355-.814.533a.552.552 0 0 1-.566.074c-.268-.106-.546-.186-.817-.284-.288-.105-.383-.31-.285-.598.04-.12.084-.237.14-.4-.23.15-.427.265-.61.4-.208.157-.412.166-.643.054-.28-.136-.57-.253-.855-.385-.255-.12-.332-.315-.242-.58.04-.12.082-.237.14-.4-.22.145-.396.26-.57.38a.46.46 0 0 1-.502.023c-.317-.17-.632-.34-.946-.516-.254-.14-.318-.316-.224-.59l.126-.358c-.173.11-.31.192-.44.283-.192.135-.378.14-.576.01-.31-.203-.626-.398-.937-.6-.23-.15-.283-.315-.195-.573l.127-.357-.388.248c-.205.13-.364.13-.557-.006-.32-.23-.64-.463-.956-.7-.208-.153-.25-.305-.165-.552.037-.113.08-.227.134-.383-.153.097-.273.167-.386.247a.448.448 0 0 1-.558 0c-.316-.216-.636-.426-.953-.64-.205-.14-.26-.302-.183-.534.057-.168.118-.337.192-.55-.208.133-.382.238-.547.355a.485.485 0 0 1-.593.013c-.282-.18-.57-.352-.855-.53-.212-.134-.274-.306-.197-.544.03-.095.065-.188.098-.28l.12-.333c-.232.15-.425.265-.605.397-.223.166-.433.167-.665.013-.24-.16-.496-.296-.744-.444-.25-.15-.31-.317-.213-.596l.227-.646c-.268.175-.502.32-.73.475-.186.128-.364.135-.557.012-.244-.155-.496-.296-.742-.448-.223-.138-.284-.307-.2-.556.092-.264.19-.53.283-.792.01-.034.024-.066.002-.108-.28.144-.526.34-.788.505-.34.215-.43.212-.76 0a9.985 9.985 0 0 1-.486-.323c-.274-.198-.314-.322-.198-.647l.335-.948c-.312.203-.586.38-.86.56-.273.177-.41.173-.673-.022-.174-.13-.35-.262-.52-.396-.25-.195-.285-.328-.178-.628l.352-.98c-.086-.01-.125.04-.17.07-.253.16-.503.328-.756.49-.185.12-.366.132-.51.004C1.05 10.252.44 9.6.135 8.73c-.295-.836-.108-1.483.58-2.054.1-.082.203-.162.31-.236.404-.288.847-.51 1.29-.73.065-.03.117-.056.143.044.435 1.687 1.533 2.9 2.873 3.938.767.593 1.59 1.1 2.418 1.6 1.124.677 2.29 1.29 3.365 2.043 1.383.968 2.69 2.03 4.004 3.088 1.813 1.46 3.637 2.904 5.63 4.124 2.247 1.376 4.643 2.388 7.245 2.883 1.087.207 2.184.278 3.283.105 1.485-.233 2.695-.905 3.503-2.243zM19.26 5.23c-.047-.106-.08-.18-.113-.25-.3-.663-.107-1.217.545-1.544.59-.296 1.224-.34 1.867-.284.3.026.42.21.39.536-.03.262-.07.523-.1.784-.08.666-.063 1.334-.01 2 .08 1.042.313 2.058.51 3.08.07.38.196.742.406 1.086 1.18 1.933 2.334 3.88 3.416 5.87.124.227.225.463.304.708.17.53.505.928.997 1.182 1.398.72 2.838 1.32 4.42 1.532.584.078 1.163.197 1.704.447.31.143.583.33.825.57.08.077.077.13.02.22-.715 1.082-1.718 1.734-2.99 1.99-1.232.25-2.45.125-3.656-.152-2.153-.495-4.134-1.406-6.04-2.49a25.74 25.74 0 0 1-3.15-2.084c-1.196-.93-2.35-1.91-3.516-2.877-1.8-1.496-3.635-2.942-5.685-4.1-1.042-.586-2.08-1.18-3.06-1.87-.94-.664-1.812-1.397-2.465-2.355a5.286 5.286 0 0 1-.72-1.517c-.022-.08-.04-.15.004-.235C3.69 4.47 4.252 3.487 5.01 2.63c.392-.443.83-.836 1.336-1.147.452-.28.882-.588 1.3-.916.487-.382 1.036-.603 1.67-.562.574.036.852.332.9.9.15 1.763 1.063 3.013 2.674 3.74 1.362.618 2.77.717 4.207.23.714-.24 1.398-.156 2.028.27.033.023.067.042.135.084z" fill="#757575" fill-rule="evenodd"/></svg><view id="ico-arrow-down" viewBox="132 258.8 31 26"/><svg width="31" height="26" viewBox="-10 -10 31 26" x="132" y="258.8"><title>Shape Copy</title><path d="M1.79.295L5.75 4.09a.36.36 0 0 0-.5 0L9.21.295a1.08 1.08 0 0 1 1.483 0 .977.977 0 0 1 0 1.422l-3.96 3.795a1.803 1.803 0 0 1-2.467 0L.306 1.717a.977.977 0 0 1 0-1.422 1.08 1.08 0 0 1 1.485 0z" fill="#444" fill-rule="evenodd"/></svg><view id="ico-arrow-left" viewBox="105 258.8 27 32"/><svg width="27" height="32" viewBox="-10 -10 27 32" x="105" y="258.8"><title>Shape Copy</title><path d="M2.41 6.25a.36.36 0 0 0 0-.5l3.795 3.96a1.08 1.08 0 0 1 0 1.483.977.977 0 0 1-1.422 0L.988 7.233a1.803 1.803 0 0 1 0-2.467L4.783.806a.977.977 0 0 1 1.422 0c.393.41.393 1.075 0 1.485L2.41 6.25z" fill="#444" fill-rule="evenodd"/></svg><view id="ico-arrow-right" viewBox="78 258.8 27 32"/><svg width="27" height="32" viewBox="-10 -10 27 32" x="78" y="258.8"><title>Shape Copy</title><path d="M4.59 5.75a.36.36 0 0 0 0 .5L.795 2.29a1.08 1.08 0 0 1 0-1.483.977.977 0 0 1 1.422 0l3.795 3.96a1.803 1.803 0 0 1 0 2.467l-3.795 3.96a.977.977 0 0 1-1.422 0 1.08 1.08 0 0 1 0-1.485L4.59 5.75z" fill="#444" fill-rule="evenodd"/></svg><view id="ico-arrow-slider" viewBox="226 297.8 28 36"/><svg width="28" height="36" viewBox="-10 -10 28 36" x="226" y="297.8"><title>Shape</title><path d="M5.972 8.098c.038-.04.037-.155 0-.196L.262 1.676A1 1 0 0 1 1.738.324L7.446 6.55c.737.804.74 2.092 0 2.9l-5.71 6.226a1 1 0 1 1-1.473-1.352l5.71-6.226z" fill="#FFF" fill-rule="evenodd"/></svg><view id="ico-arrow-up" viewBox="163 258.8 31 26"/><svg width="31" height="26" viewBox="-10 -10 31 26" x="163" y="258.8"><title>Shape Copy</title><path d="M5.25 1.91a.36.36 0 0 0 .5 0L1.79 5.705a1.08 1.08 0 0 1-1.483 0 .977.977 0 0 1 0-1.422L4.267.488a1.803 1.803 0 0 1 2.467 0l3.96 3.795a.977.977 0 0 1 0 1.422 1.08 1.08 0 0 1-1.485 0L5.25 1.91z" fill="#444" fill-rule="evenodd"/></svg><view id="ico-dark-bell" viewBox="0 297.8 38 40"/><svg width="38" height="40" viewBox="-10 -10 38 40" y="297.8"><title>Shape</title><path d="M8.627 20c1.1 0 2-.9 2-2H6.626c0 1.1.9 2 2.002 2zm6.504-6V8.5c0-3.1-2.1-5.6-5.002-6.3v-.7c0-.8-.7-1.5-1.5-1.5S7.125.7 7.125 1.5v.7c-2.902.7-5.004 3.2-5.004 6.3V14l-2 2v1h17.01v-1l-2-2z" fill="#444" fill-rule="evenodd"/></svg><view id="ico-dark-heart" viewBox="0 258.8 41 39"/><svg width="41" height="39" viewBox="-10 -10 41 39" y="258.8"><title>Favoritos</title><path d="M10.097 18.4l-1.4-1.4C3.492 12.4.09 9.3.09 5.5.09 2.4 2.492 0 5.594 0c1.7 0 3.402.8 4.503 2.1C11.197.8 12.9 0 14.6 0c3.102 0 5.504 2.4 5.504 5.5 0 3.8-3.402 6.9-8.606 11.5l-1.4 1.4z" fill="#444" fill-rule="evenodd"/></svg><view id="ico-eletronicos" viewBox="41 258.8 37 35"/><svg width="37" height="35" viewBox="-10 -10 37 35" x="41" y="258.8"><title>Group</title><path d="M8.438 12.5c1.16 0 2.158-.41 2.99-1.23.832-.82 1.248-1.804 1.248-2.95 0-1.146-.416-2.13-1.248-2.95-.832-.82-1.83-1.23-2.99-1.23-1.162 0-2.16.41-2.99 1.23-.833.82-1.25 1.804-1.25 2.95 0 1.146.417 2.13 1.25 2.95.83.82 1.828 1.23 2.99 1.23zM5.902 0h5.07l1.546 1.64h2.693c.45 0 .84.17 1.17.508.33.34.495.73.495 1.172v10c0 .443-.165.834-.495 1.172-.33.34-.72.508-1.17.508H1.665c-.45 0-.84-.17-1.17-.508-.33-.338-.494-.73-.494-1.172v-10c0-.442.165-.833.495-1.172a1.58 1.58 0 0 1 1.17-.507h2.692L5.902 0zm-.158 8.32c0-.73.264-1.354.792-1.875a2.612 2.612 0 0 1 1.902-.78c.74 0 1.373.26 1.9.78a2.54 2.54 0 0 1 .793 1.875 2.54 2.54 0 0 1-.79 1.875 2.612 2.612 0 0 1-1.903.782c-.74 0-1.373-.26-1.9-.782a2.54 2.54 0 0 1-.793-1.875z" fill="#444" fill-rule="evenodd"/></svg><view id="ico-esporte-lazer" viewBox="326 222 40 36"/><svg width="40" height="36" viewBox="-10 -10 40 36" x="326" y="222"><title>Page 1</title><path d="M13.86 3.8c-.557 0-1.035-.18-1.433-.54a1.724 1.724 0 0 1-.597-1.332c0-.53.2-.983.597-1.36A2.007 2.007 0 0 1 13.86 0c.557 0 1.025.19 1.403.567.378.378.567.832.567 1.36 0 .53-.19.975-.567 1.334-.378.36-.846.54-1.403.54zm1.988 4.408c1.13 0 2.106.39 2.924 1.167.82.778 1.228 1.694 1.228 2.75s-.41 1.965-1.228 2.73C17.954 15.617 16.98 16 15.848 16a4.217 4.217 0 0 1-2.946-1.146c-.834-.764-1.25-1.673-1.25-2.73s.416-1.97 1.25-2.75c.833-.777 1.815-1.166 2.946-1.166zm0 6.625c.804 0 1.488-.264 2.054-.79.565-.53.848-1.168.848-1.918s-.283-1.396-.848-1.938c-.566-.54-1.25-.812-2.054-.812-.803 0-1.495.27-2.076.812-.58.542-.87 1.188-.87 1.938s.29 1.39.87 1.917c.58.527 1.273.79 2.076.79zm-3.616-8.166l-1.34-1.875-1.92 1.875L10.715 8v4.667H9.286V9.083L6.563 7.5c-.566-.36-.85-.736-.85-1.125s.135-.708.403-.958L9.33 2.542c.268-.25.596-.375.982-.375.506 0 .923.222 1.25.666l1.518 2.5h2.634v1.334h-3.482zm-8.08 1.54c1.13 0 2.113.39 2.946 1.168.834.778 1.25 1.694 1.25 2.75s-.416 1.965-1.25 2.73A4.217 4.217 0 0 1 4.152 16c-1.13 0-2.106-.382-2.924-1.146C.408 14.09 0 13.18 0 12.124s.41-1.97 1.228-2.75A4.1 4.1 0 0 1 4.152 8.21zm0 6.626c.803 0 1.495-.264 2.076-.79.58-.53.87-1.168.87-1.918s-.29-1.396-.87-1.938a2.938 2.938 0 0 0-2.076-.812c-.804 0-1.488.27-2.054.812-.565.542-.848 1.188-.848 1.938s.283 1.39.848 1.917c.566.527 1.25.79 2.054.79z" fill="#444" fill-rule="evenodd"/></svg><view id="ico-livros" viewBox="192 297.8 34 36"/><svg width="34" height="36" viewBox="-10 -10 34 36" x="192" y="297.8"><title>Page 1</title><path d="M14 2.114v13.554c0 .22-.114.332-.34.332H.34c-.226 0-.34-.11-.34-.332V.332C0 .11.114 0 .34 0h11.142c.227 0 .34.11.34.332v13.222c0 .22-.113.332-.34.332H1.11v.788c.057.193.17.29.34.29h11.14c.23 0 .343-.125.343-.373V1.783h.726c.226 0 .34.11.34.332zm-12.933.332v2.652c0 .222.128.332.384.332h8.922c.228 0 .34-.11.34-.332V2.446c0-.22-.112-.332-.34-.332h-8.92c-.257 0-.385.11-.385.332z" fill="#444" fill-rule="evenodd"/></svg><view id="ico-plus" viewBox="282 297.8 30 30"/><svg width="30" height="30" viewBox="-10 -10 30 30" x="282" y="297.8"><title>plus</title><path d="M4 1a1 1 0 1 1 2 0v3h3a1 1 0 1 1 0 2H6v3a1 1 0 1 1-2 0V6H1a1 1 0 1 1 0-2h3V1z" fill="#2189E0" fill-rule="evenodd"/></svg><view id="ico-trash" viewBox="366 222 33 36"/><svg width="33" height="36" viewBox="-10 -10 33 36" x="366" y="222"><title>Shape</title><path d="M.93 14.222C.93 15.2 1.763 16 2.785 16h7.428c1.022 0 1.857-.8 1.857-1.778V3.556H.93v10.666zM13 .89H9.75L8.82 0H4.18l-.93.89H0v1.777h13V.89z" fill="#ACACAC" fill-rule="evenodd"/></svg><view id="icoProtegeAtivado" viewBox="158 297.8 34 37"/><svg width="34" height="37" viewBox="-10 -10 34 37" x="158" y="297.8"><title>Protege_ativado</title><g fill="none" fill-rule="evenodd"><path d="M14 1.3A1.293 1.293 0 0 0 12.713 0H1.283C.57 0-.007.583 0 1.3c0 0 .008 4.996.29 8.854.28 3.858 5.865 6.65 5.865 6.65.466.26 1.228.264 1.69 0 0 0 5.602-2.792 5.882-6.65C14.007 6.296 14 1.3 14 1.3z" fill="#22B14C"/><path d="M7.918 10l-2.68.96a.942.942 0 0 1-1.15-.547 1.125 1.125 0 0 1 .354-1.325l2.392-1.636L8.58 6.255c.702-.433 1.595-.317 2.106.364 0 0 .206.27.288.703.147.87-.344 1.67-1.097 1.98L7.917 10z" fill="#FFF"/></g></svg><view id="icoProtegeDesativado" viewBox="364 119 34 37"/><svg width="34" height="37" viewBox="-10 -10 34 37" x="364" y="119"><title>Protege_desativado</title><g fill="none" fill-rule="evenodd"><path d="M14 1.3A1.293 1.293 0 0 0 12.713 0H1.283C.57 0-.007.583 0 1.3c0 0 .008 4.996.29 8.854.28 3.858 5.865 6.65 5.865 6.65.466.26 1.228.264 1.69 0 0 0 5.602-2.792 5.882-6.65C14.007 6.296 14 1.3 14 1.3z" fill="#E93F46"/><path d="M7.918 10l-2.68.96a.942.942 0 0 1-1.15-.547 1.125 1.125 0 0 1 .354-1.325l2.392-1.636L8.58 6.255c.702-.433 1.595-.317 2.106.364 0 0 .206.27.288.703.147.87-.344 1.67-1.097 1.98L7.917 10z" fill="#FFF"/></g></svg><view id="icon-ebit-10" viewBox="157.6 176 74.8 73"/><svg version="1" id="cavCamada_1" width="74.8" height="73" viewBox="-10 -10 74.8 73" x="157.6" y="176"><style>.cavst0,.cavst1{stroke-miterlimit:10}.cavst0{fill:url(#cavSVGID_1_);stroke-width:2;stroke:#996723}.cavst1{stroke:#814f20}.cavst1,.cavst2{fill-rule:evenodd;clip-rule:evenodd;fill:#fff}</style><path class="cavst2" d="M22.3 24.2c.2-2.2 1.9-4.4 5.1-4.4 2.6 0 4.4 2 4.4 4.4h-9.5zm10.5 6.5c-1.2 1.6-2.8 2.8-5.1 2.8-2.8 0-4.8-1.8-5.4-4.5h16.6v-2.2c0-7.4-4.2-12.2-10.9-12.2-7.2 0-12.9 4.8-12.9 12.2C15.1 34.2 20.9 39 28 39c3.7 0 7.5-1.7 9.8-4.6l-5-3.7z"/><linearGradient id="cavSVGID_1_" gradientUnits="userSpaceOnUse" x1="27.012" y1="1.787" x2="27.012" y2="51.788"><stop offset=".006" stop-color="#854a1f"/><stop offset=".75" stop-color="#c7803a"/></linearGradient><path class="cavst0" d="M27 1.8C13.2 1.8 2 13 2 26.8s11.2 25 25 25 25-11.2 25-25-11.2-25-25-25z"/><path class="cavst1" d="M20.6 23.4c.3-2.9 2.5-5.7 6.6-5.7 3.3 0 5.8 2.6 5.7 5.7H20.6zm13.6 8.5c-1.6 2.1-3.6 3.7-6.6 3.7-3.6 0-6.3-2.3-7-5.8h21.5v-2.9c0-9.3-5.5-16.1-15-16.1-9.6 0-15.8 7-15.8 16.1 0 9.6 7.5 15.8 16.8 15.8 4.9 0 9.7-2.2 12.7-6l-6.6-4.8z"/></svg><view id="icon-ebit-20" viewBox="82.8 176 74.8 73"/><svg version="1" id="cawCamada_1" width="74.8" height="73" viewBox="-10 -10 74.8 73" x="82.8" y="176"><style>.cawst0{fill:url(#cawSVGID_1_);stroke:#a2a2a4;stroke-width:2;stroke-miterlimit:10}.cawst1,.cawst2{fill-rule:evenodd;clip-rule:evenodd;fill:#fff}.cawst2{stroke:#979796;stroke-miterlimit:10}</style><path class="cawst1" d="M21.9 23.5c.2-2.2 1.9-4.4 5.1-4.4 2.6 0 4.4 2 4.4 4.4h-9.5zm10.5 6.6c-1.2 1.6-2.8 2.8-5.1 2.8-2.8 0-4.8-1.8-5.4-4.5h16.6v-2.2c0-7.4-4.2-12.2-10.9-12.2-7.2 0-12.9 4.8-12.9 12.2 0 7.4 5.7 12.2 12.9 12.2 3.7 0 7.5-1.7 9.8-4.6l-5-3.7z"/><linearGradient id="cawSVGID_1_" gradientUnits="userSpaceOnUse" x1="-599.542" y1="7847.112" x2="-549.544" y2="7847.443" gradientTransform="rotate(89.622 3662.205 4239.584)"><stop offset="0" stop-color="#91a3b4"/><stop offset=".75" stop-color="#bfcbd7"/></linearGradient><path class="cawst0" d="M51.5 26.5c0-13.8-11.3-24.9-25.1-24.9C12.6 1.7 1.5 13 1.5 26.8c.1 13.8 11.4 24.9 25.2 24.8 13.8 0 24.9-11.3 24.8-25.1z"/><path class="cawst2" d="M20.6 23.4c.3-2.9 2.5-5.7 6.6-5.7 3.3 0 5.8 2.6 5.7 5.7H20.6zm13.6 8.5c-1.6 2.1-3.6 3.7-6.6 3.7-3.6 0-6.3-2.3-7-5.8h21.5v-2.9c0-9.3-5.5-16.1-15-16.1-9.6 0-15.8 7-15.8 16.1 0 9.6 7.5 15.8 16.8 15.8 4.9 0 9.7-2.2 12.7-6l-6.6-4.8z"/></svg><view id="icon-ebit-30" viewBox="232.39999999999998 176 74.8 73"/><svg version="1" id="caxCamada_1" width="74.8" height="73" viewBox="-10 -10 74.8 73" x="232.4" y="176"><style>.caxst0{fill:url(#caxSVGID_1_);stroke-width:2}.caxst0,.caxst1{stroke:#bb9a25;stroke-miterlimit:10}.caxst1,.caxst2{fill-rule:evenodd;clip-rule:evenodd;fill:#fff}</style><path class="caxst2" d="M22.4 24c.2-2.2 1.9-4.4 5.1-4.4 2.6 0 4.4 2 4.4 4.4h-9.5zm10.5 6.5c-1.2 1.6-2.8 2.8-5.1 2.8-2.8 0-4.8-1.8-5.4-4.5H39v-2.2c0-7.4-4.2-12.2-10.9-12.2-7.2 0-12.9 4.8-12.9 12.2 0 7.4 5.7 12.2 12.9 12.2 3.7 0 7.5-1.7 9.8-4.6l-5-3.7z"/><linearGradient id="caxSVGID_1_" gradientUnits="userSpaceOnUse" x1="-949.673" y1="7410.387" x2="-899.867" y2="7414.86" gradientTransform="rotate(84.865 3590.826 4240.252)"><stop offset="0" stop-color="#edd532"/><stop offset="1" stop-color="#f7ef93"/></linearGradient><path class="caxst0" d="M51.9 24.4C50.7 10.7 38.5.5 24.8 1.7 11 3 .9 15.2 2.1 28.9c1.2 13.7 13.4 23.9 27.1 22.7C43 50.3 53.1 38.1 51.9 24.4z"/><path class="caxst1" d="M20.8 23.4c.3-2.9 2.5-5.7 6.6-5.7 3.3 0 5.8 2.6 5.7 5.7H20.8zm13.7 8.5c-1.6 2.1-3.6 3.7-6.6 3.7-3.6 0-6.3-2.3-7-5.8h21.5v-2.9c0-9.3-5.5-16.1-15-16.1-9.6 0-15.8 7-15.8 16.1 0 9.6 7.5 15.8 16.8 15.8 4.9 0 9.7-2.2 12.7-6l-6.6-4.8z"/></svg><view id="icon-ebit-40" viewBox="0 176 82.8 82.8"/><svg version="1" id="cayCamada_1" width="82.8" height="82.8" viewBox="-10 -10 82.8 82.8" y="176"><style>.cayst0{stroke:#4c77a3;fill-rule:evenodd;clip-rule:evenodd;stroke-miterlimit:10}.cayst0,.cayst1,.cayst2{fill:#fff}.cayst1,.cayst2,.cayst3{fill-rule:evenodd;clip-rule:evenodd;stroke-miterlimit:10}.cayst1{stroke-linecap:round;stroke-linejoin:round;stroke:#fff;stroke-width:14.1732}.cayst2,.cayst3{stroke:#263858;stroke-width:1.5731}.cayst3{fill:none;stroke:#4c77a3}.cayst4,.cayst5{fill:#fff}.cayst5{stroke:#33587e;stroke-width:1.5731;stroke-miterlimit:10}.cayst10,.cayst11,.cayst5,.cayst6,.cayst7,.cayst8,.cayst9{fill-rule:evenodd;clip-rule:evenodd}.cayst6{stroke:#4c77a3;stroke-width:1.5731;stroke-miterlimit:10;fill:#fff}.cayst7{fill:url(#caySVGID_1_)}.cayst8{fill:url(#caySVGID_2_)}.cayst9{fill:url(#caySVGID_3_)}.cayst10{fill:url(#caySVGID_4_)}.cayst11{fill:url(#caySVGID_5_)}.cayst12{fill:url(#caySVGID_6_)}.cayst12,.cayst13,.cayst14,.cayst15,.cayst16,.cayst17{fill-rule:evenodd;clip-rule:evenodd}.cayst13{fill:url(#caySVGID_7_)}.cayst14{fill:url(#caySVGID_8_)}.cayst15{fill:url(#caySVGID_9_)}.cayst16,.cayst17{fill:#fff;stroke:#6a92b6;stroke-width:1.5731;stroke-miterlimit:10}.cayst17{stroke:#92b6ce}</style><path class="cayst1" d="M53.6 52.2l-20.7 9.6-21.5-8-9.5-20.7 7.9-21.5 20.8-9.5L52 10l9.6 20.8z"/><linearGradient id="caySVGID_1_" gradientUnits="userSpaceOnUse" x1="-2845.433" y1="-3173.89" x2="-2824.88" y2="-3173.89" gradientTransform="rotate(180 -1396.374 -1560.486)"><stop offset="0" stop-color="#6e92b4"/><stop offset=".81" stop-color="#29426d"/></linearGradient><path class="cayst7" d="M52.7 51.8l-20.2 9.4-.4-10.4 13.5-6.2z"/><linearGradient id="caySVGID_2_" gradientUnits="userSpaceOnUse" x1="-1621.274" y1="404.078" x2="-1600.719" y2="404.078" gradientTransform="rotate(135 -702.47 566.578)"><stop offset="0" stop-color="#a0c7e0"/><stop offset="1" stop-color="#29426d"/></linearGradient><path class="cayst8" d="M61.3 31l-7.5 20.9-7.7-7.1 5.1-13.9z"/><path class="cayst5" d="M53.2 51.8l-11-10.1"/><linearGradient id="caySVGID_3_" gradientUnits="userSpaceOnUse" x1="-4861.049" y1="-631.386" x2="-4840.494" y2="-631.386" gradientTransform="rotate(-135 -2271.466 -1298.024)"><stop offset="0" stop-color="#6e92b4"/><stop offset=".81" stop-color="#29426d"/></linearGradient><path class="cayst9" d="M31.8 60.9l-20.9-7.6 7.1-7.6 13.9 5.1z"/><path class="cayst2" d="M32.4 61.7l-.6-14.9"/><path class="cayst5" d="M11.1 53.8l10.1-11"/><linearGradient id="caySVGID_4_" gradientUnits="userSpaceOnUse" x1="-590.341" y1="-399.438" x2="-569.785" y2="-399.438" gradientTransform="rotate(45 -762.705 552.164)"><stop offset="0" stop-color="#fff"/><stop offset="1" stop-color="#a0c7e0"/></linearGradient><path class="cayst10" d="M31.3 1.9l20.9 7.6-7.1 7.7L31.2 12z"/><linearGradient id="caySVGID_5_" gradientUnits="userSpaceOnUse" x1="30.761" y1="10.328" x2="9.089" y2="10.328"><stop offset="0" stop-color="#fff"/><stop offset=".847" stop-color="#aecfe5"/><stop offset="1" stop-color="#a0c7e0"/></linearGradient><path class="cayst11" d="M10 11.4L30.1 2l.4 10.4L17 18.7z"/><linearGradient id="caySVGID_6_" gradientUnits="userSpaceOnUse" x1="-1272.019" y1="-221.485" x2="-1251.464" y2="-221.485" gradientTransform="rotate(90 -725.39 556.908)"><stop offset=".123" stop-color="#e5f1f9"/><stop offset=".509" stop-color="#a0c7e0"/><stop offset="1" stop-color="#29426d"/></linearGradient><path class="cayst12" d="M51.9 10.3l9.4 20.1-10.4.4-6.2-13.5z"/><path class="cayst17" d="M30.2 2l.6 14.9"/><path class="cayst16" d="M51.6 9.8l-10.2 11"/><linearGradient id="caySVGID_7_" gradientUnits="userSpaceOnUse" x1="-1218.193" y1="1390.61" x2="-1197.639" y2="1390.61" gradientTransform="rotate(86.376 -1351.967 -35.706)"><stop offset=".123" stop-color="#e5f1f9"/><stop offset=".509" stop-color="#a0c7e0"/><stop offset="1" stop-color="#29426d"/></linearGradient><path class="cayst13" d="M9.8 12.1L1.6 32.8l10.5-.3 5.3-13.8z"/><path class="cayst16" d="M9.4 11.4l11 10.1"/><linearGradient id="caySVGID_8_" gradientUnits="userSpaceOnUse" x1="-443.599" y1="1505.47" x2="-423.044" y2="1505.47" gradientTransform="rotate(41.376 -2259.972 -147.02)"><stop offset="0" stop-color="#a0c7e0"/><stop offset="1" stop-color="#29426d"/></linearGradient><path class="cayst14" d="M1.7 33.4l8.9 20.4 7.2-7.6-6.1-13.6z"/><path class="cayst3" d="M53.3 51.8l-20.8 9.6-21.4-7.9-9.6-20.8 8-21.4 20.7-9.6 21.5 7.9 9.5 20.8z"/><path class="cayst6" d="M1.5 32.7l15-.6M61 30.5l-14.9.5"/><linearGradient id="caySVGID_9_" gradientUnits="userSpaceOnUse" x1="32.194" y1="57.552" x2="30.654" y2="8.522"><stop offset="0" stop-color="#a0c7e0"/><stop offset="1" stop-color="#29426d"/></linearGradient><path class="cayst15" d="M48.5 47.4l-16.2 7.4-16.7-6.2-7.5-16.2 6.2-16.7 16.2-7.4 16.7 6.2 7.5 16.2z"/><path class="cayst4" d="M64.2 32.8l-7.9-1.4-2.5 7.6 1.3-7.9-7.6-2.5 7.9 1.4 2.5-7.6-1.3 7.9zM22.4 47l-6 2.3 1.3 6.3-2.3-6L9.1 51l6-2.4-1.3-6.2 2.3 6z"/><path class="cayst0" d="M24.8 28.3c.3-2.9 2.5-5.7 6.6-5.7 3.3 0 5.8 2.6 5.7 5.7H24.8zm13.7 8.5c-1.6 2.1-3.6 3.7-6.6 3.7-3.6 0-6.3-2.3-7-5.8h21.5v-2.9c0-9.3-5.5-16.1-15-16.1-9.6 0-15.8 7-15.8 16.1 0 9.6 7.5 15.8 16.8 15.8 4.9 0 9.7-2.2 12.7-6l-6.6-4.8z"/></svg><view id="icon-ebit-5" viewBox="326 0 74.8 73"/><svg version="1" id="cazCamada_1" width="74.8" height="73" viewBox="-10 -10 74.8 73" x="326"><style>.cazst0{fill:#ac251d}.cazst1{fill:#fff;stroke:#a3a3a3;stroke-width:2;stroke-miterlimit:10}.cazst2,.cazst3{fill-rule:evenodd;clip-rule:evenodd;fill:#fff}.cazst3{fill:#cac9ca;stroke:#f0f0f1;stroke-miterlimit:10}</style><circle class="cazst0" cx="26.8" cy="26.8" r="17.9"/><path class="cazst2" d="M22.3 24.2c.2-2.2 1.9-4.4 5.1-4.4 2.6 0 4.4 2 4.4 4.4h-9.5zm10.5 6.5c-1.2 1.6-2.8 2.8-5.1 2.8-2.8 0-4.8-1.8-5.4-4.5h16.6v-2.2c0-7.4-4.2-12.2-10.9-12.2-7.2 0-12.9 4.8-12.9 12.2C15.1 34.2 20.9 39 28 39c3.7 0 7.5-1.7 9.8-4.6l-5-3.7z"/><path class="cazst1" d="M27.1 1.8c-13.8 0-25 11.2-25 25s11.2 25 25 25 25-11.2 25-25-11.2-25-25-25z"/><path class="cazst3" d="M20.6 23.4c.3-2.9 2.5-5.7 6.6-5.7 3.3 0 5.8 2.6 5.7 5.7H20.6zm13.6 8.5c-1.6 2.1-3.6 3.7-6.6 3.7-3.6 0-6.3-2.3-7-5.8h21.5v-2.9c0-9.3-5.5-16.1-15-16.1-9.6 0-15.8 7-15.8 16.1 0 9.6 7.5 15.8 16.8 15.8 4.9 0 9.7-2.2 12.7-6l-6.6-4.8z"/></svg><view id="icons-navmenu" viewBox="0 0 218 176"/><svg width="218" height="176" viewBox="-10 -10 218 176"><view viewBox="0 0 66 52"/><svg width="66" height="52" viewBox="4.4 3.36 66 52"><path fill="#454545" d="M30.216 29.26l.478-12.776c.023-.644.593-1.17 1.263-1.17h10.875c.67 0 1.238.526 1.265 1.17l.476 12.776H30.216zm15.04.564H29.532c-.67 0-1.217.527-1.217 1.172v.88c0 .642.548 1.17 1.218 1.17h.666L29.13 43.4h1.227l.338-3.303h13.4l.337 3.303h1.227l-1.066-10.354h.665c.67 0 1.217-.53 1.217-1.172v-.88c-.002-.642-.55-1.17-1.22-1.17zm-1.284 9.104H30.817l.604-5.88h11.947l.605 5.88z"/></svg><view viewBox="66 0 66 52"/><svg width="66" height="52" viewBox="4.4 3.36 66 52" x="66"><path fill="#454545" d="M43.427 37.59V21.126H31.363V37.59h12.064zm0-21.16c.64 0 1.193.23 1.664.69.47.46.704 1.005.704 1.632v21.21c0 .628-.234 1.18-.705 1.658-.47.48-1.024.72-1.663.72H31.363c-.64 0-1.19-.24-1.662-.72s-.704-1.03-.704-1.657v-21.21c0-.628.234-1.18.705-1.658.47-.48 1.024-.72 1.663-.72l12.064.056z"/><defs><path id="cbaa" d="M43.427 37.59V21.126H31.363V37.59h12.064zm0-21.16c.64 0 1.193.23 1.664.69.47.46.704 1.005.704 1.632v21.21c0 .628-.234 1.18-.705 1.658-.47.48-1.024.72-1.663.72H31.363c-.64 0-1.19-.24-1.662-.72s-.704-1.03-.704-1.657v-21.21c0-.628.234-1.18.705-1.658.47-.48 1.024-.72 1.663-.72l12.064.056z"/></defs><clipPath id="cbab"><use xlink:href="#cbaa" overflow="visible"/></clipPath><path clip-path="url(#cbab)" fill="#454545" d="M25.177 12.558h24.436v33.6H25.177z"/></svg><view viewBox="0 52 66 52"/><svg width="66" height="52" viewBox="4.4 3.36 66 52" y="52"><path d="M30.944 25.517v-5.042h2.062v5.042h13.372v-7.605c0-.675-.25-1.26-.754-1.757-.5-.498-1.095-.744-1.777-.744l-12.902-.06c-.683 0-1.274.258-1.777.774-.504.516-.754 1.112-.754 1.787v7.606h2.53zm2.06 1.51V38.24h-2.06V27.027H28.41V40.8c0 .678.25 1.272.754 1.79.503.517 1.095.775 1.777.775h.946v-1.117H42.9v1.117h.946c.683 0 1.276-.26 1.777-.776.504-.518.754-1.112.754-1.79V27.028H33.005z" fill="#454545"/></svg><view viewBox="66 52 66 52"/><svg width="66" height="52" viewBox="4.4 3.36 66 52" x="66" y="52"><g fill="#454545"><path d="M26.907 22.558H24.98v1.91H23.05v1.908h1.927v1.908h1.927v-1.908h1.928v-1.91h-1.928z"/><ellipse cx="47.679" cy="24.073" rx="1.359" ry="1.349"/><ellipse cx="50.406" cy="26.771" rx="1.361" ry="1.349"/><path d="M57.517 31.483c-.236-2.35.627-10.263-3.917-12.924-4.54-2.66-8.928 0-8.928 0l-6.81-.138v-.02h-.932v.02l-6.81.138s-4.387-2.662-8.93 0c-4.543 2.664-3.68 10.573-3.916 12.924-.236 2.35-.393 5.17-.314 6.66.078 1.487 1.175 4.07 5.718 2.896 4.543-1.174 7.205-4.23 9.243-9.556h10.95c2.035 5.326 4.7 8.382 9.24 9.556 4.545 1.175 5.642-1.41 5.72-2.896.08-1.49-.077-4.31-.313-6.66zm-31.574-1.127a4.857 4.857 0 1 1 .003-9.713 4.857 4.857 0 0 1-.003 9.713zm22.907 0a4.857 4.857 0 1 1 .003-9.713 4.857 4.857 0 0 1-.003 9.713z"/></g></svg><view viewBox="132 0 66 52"/><svg width="66" height="52" viewBox="4.4 3.36 66 52" x="132"><path fill="#454545" d="M59.32 40.13l.002-.03v-.026c0-.624-.252-1.232-.698-1.498l-.052-.03-.02-.014-20.364-12.135v-.035a4.735 4.735 0 0 0 4.36-4.714 4.737 4.737 0 0 0-4.74-4.736 4.737 4.737 0 0 0-4.736 4.544h3.126l-.003.088c0-.89.723-1.558 1.612-1.558.892 0 1.612.746 1.612 1.636 0 .76-.526 1.416-1.232 1.586v-.047H37.05v3.09c-.05.02-.098.04-.146.067L16.176 38.35c-.568.333-.825 1.222-.656 1.988.088.792.603 1.465 1.227 1.465H58.08c.663 0 1.2-.76 1.24-1.612v-.06zM29.817 34.17l7.234-4.2v.01h.85l3.834 2.286 7.664 4.564 2.632 1.57h-29.5l7.286-4.23z"/></svg><view viewBox="132 52 66 52"/><svg width="66" height="52" viewBox="4.4 3.36 66 52" x="132" y="52"><path fill="#454545" d="M23.834 18.873V36.32h27.12V18.873h-27.12zm27.12 20.97h6.743v3.52H17.092v-3.52h6.742c-.898 0-1.678-.355-2.34-1.065-.66-.71-.992-1.528-.992-2.46V18.874c0-.93.33-1.747.993-2.458.66-.71 1.44-1.063 2.34-1.063h27.12c.9 0 1.68.354 2.34 1.065.663.71.992 1.527.992 2.458V36.32c0 .93-.33 1.75-.992 2.46-.66.707-1.44 1.062-2.34 1.062z"/></svg><view viewBox="0 104 66 52"/><svg width="66" height="52" viewBox="4.4 3.36 66 52" y="104"><path fill="#454545" d="M51.963 37.54V17.964H22.83V37.54h29.133zm0-22.866c.86 0 1.62.33 2.276.994.655.663.984 1.427.984 2.296L55.15 37.54c0 .867-.316 1.622-.948 2.256-.633.64-1.38.957-2.237.957h-8.118v3.288h-12.9v-3.287H22.83c-.86 0-1.62-.318-2.278-.957-.657-.636-.986-1.39-.986-2.256V17.964c0-.87.33-1.633.987-2.296.658-.664 1.417-.994 2.277-.994h29.133z"/></svg><view viewBox="66 104 66 52"/><svg width="66" height="52" viewBox="4.4 3.36 66 52" x="66" y="104"><path fill="#454545" d="M27.502 25.865c-1.815 0-3.3 1.57-3.3 3.492s1.484 3.492 3.3 3.492c1.813 0 3.296-1.572 3.296-3.493s-1.482-3.492-3.296-3.492zm19.785 0c-1.813 0-3.296 1.57-3.296 3.492s1.484 3.492 3.297 3.492c1.815 0 3.3-1.572 3.3-3.493s-1.483-3.492-3.3-3.492zm-9.892 0c-1.814 0-3.297 1.57-3.297 3.492s1.48 3.492 3.297 3.492 3.3-1.572 3.3-3.493-1.486-3.492-3.3-3.492z"/></svg><view viewBox="132 104 66 52"/><svg width="66" height="52" viewBox="4.4 3.36 66 52" x="132" y="104"><path fill="#454545" d="M36.984 13.683c-2.44.032-2.63 6.23-2.577 10.5l-10.044 8.22a.615.615 0 0 0-.22.5l.038 1.677c.005.19.198.34.388.263l5.68-1.945.018.802c.003.153.16.303.313.302l.533-.008c.15-.003.302-.157.297-.31l-.026-1.184 3.482-1.19c.38 3.504.938 7.215 1.232 9.366l-3.002 3.147a.612.612 0 0 0-.218.498l.01.497c.004.152.14.245.29.206l4.433-1.394 4.492 1.274c.153.036.284-.06.28-.213l-.01-.496a.73.73 0 0 0-.24-.492l-3.136-3.066c.202-2.157.576-5.9.827-9.393l3.53 1.098.026 1.184c.003.152.158.304.31.3l.535-.006a.326.326 0 0 0 .3-.31l-.018-.8 5.76 1.79c.19.075.398-.062.375-.27l-.035-1.68a.72.72 0 0 0-.24-.49L39.972 24.11c-.09-4.232-.55-10.46-2.99-10.427z"/></svg></svg><view id="cplaystore" viewBox="218 0 108 45"/><svg width="108" height="45" viewBox="-10 -10 108 45" x="218"><title>Group 2</title><defs><linearGradient x1="58.917%" y1="9.59%" x2="90.81%" y2="60.851%" id="cbba"><stop stop-color="#FF177B" offset="0%"/><stop stop-color="#FFEC73" offset="100%"/></linearGradient><linearGradient x1="37.103%" y1="-44.035%" x2="0%" y2="101.06%" id="cbbc"><stop stop-color="#064AA2" offset="0%"/><stop stop-color="#63FFD4" offset="100%"/></linearGradient><path id="cbbb" d="M8.947 8.128L.322 0C.122.046 0 .196 0 .448V16c0 .214.087.34.193.384l8.754-8.256z"/><path id="cbbe" d="M.356 8.178L5.34 5.455c1.23-.676 2.203-1.213 2.203-1.213L11.168 2.3 8.755-.03.002 8.225a.62.62 0 0 0 .403-.052"/><linearGradient x1="78.645%" y1="50%" x2="2.495%" y2="100%" id="cbbf"><stop stop-color="#FF4521" offset="0%"/><stop stop-color="#8A33DB" offset="100%"/></linearGradient><linearGradient x1="0%" y1="-24.186%" x2="64.224%" y2="100%" id="cbbi"><stop stop-color="#00A3B5" offset="0%"/><stop stop-color="#D6FFA1" offset="100%"/></linearGradient><path id="cbbh" d="M1.226.835A.65.65 0 0 0 .76.757l8.633 8.14L11.78 6.65l-3.6-1.983S4.79 2.797 2.74 1.67L1.226.835z"/></defs><g fill="none" fill-rule="evenodd"><path d="M8.502 4.667L1.558.842c-.386-.213-.77-.084-.77.36v15.584c0 .333.274.477.61.293.334-.187 7.104-3.917 7.104-3.917l1.38-.76 2.22-1.222 3.46-1.905c.406-.224.367-.53.025-.707-.343-.177-3.485-1.92-3.485-1.92l-3.6-1.983z" fill="url(#cbba)" transform="translate(-.25 7.694)"/><g transform="translate(.516 8.456)"><mask id="cbbd" fill="#fff"><use xlink:href="#cbbb"/></mask><use fill="url(#cbbc)" xlink:href="#cbbb"/><path d="M11.328 5.888L7.724 3.904C7.71 3.934 1.154.314.772.128.384-.112 0 .016 0 .448v15.616c0 .343.274.487.58.32.364-.202 7.13-3.94 7.144-3.968l3.604-1.984c-.02.028 3.034-1.658 3.41-1.856.436-.25.397-.557.066-.704-.354-.207-3.495-1.953-3.476-1.984" mask="url(#cbbd)"/></g><g transform="translate(.708 16.616)"><mask id="cbbg" fill="#fff"><use xlink:href="#cbbe"/></mask><path d="M7.532-4.256C7.52-4.226.962-7.846.58-8.032c-.388-.24-.772-.112-.772.32V7.904c0 .343.274.487.58.32.364-.202 7.13-3.94 7.144-3.968l3.604-1.984c-.02.027 3.034-1.66 3.41-1.856.436-.25.397-.558.066-.704-.354-.207-3.495-1.953-3.476-1.984L7.532-4.256z" fill="url(#cbbf)" mask="url(#cbbg)"/></g><g transform="translate(.07 7.694)"><mask id="cbbj" fill="#fff"><use xlink:href="#cbbh"/></mask><use fill="url(#cbbi)" xlink:href="#cbbh"/><path d="M11.774 6.65L8.17 4.666c-.013.03-6.57-3.59-6.95-3.776C.83.65.445.778.445 1.21v15.616c0 .343.274.487.58.32.364-.202 7.13-3.94 7.144-3.968l3.603-1.984c-.018.028 3.035-1.66 3.412-1.856.434-.25.395-.558.064-.704-.355-.207-3.495-1.953-3.477-1.984" mask="url(#cbbj)"/></g><g fill="#FFF"><path d="M61.766 19.328l-.713.672c-.164.09-.328.196-.49.27-.497.225-1 .282-1.447.282-.476 0-1.223-.03-1.984-.582-1.058-.745-1.52-2.026-1.52-3.142 0-2.31 1.88-3.444 3.415-3.444.536 0 1.087.134 1.535.417.744.495.937 1.135 1.043 1.478l-3.503 1.415-1.147.09c.37 1.894 1.653 2.996 3.07 2.996.707 0 1.232-.23 1.713-.47 0 0 .097-.05.028.02zm-2.14-3.8c.28-.105.427-.195.427-.404 0-.6-.666-1.292-1.46-1.292-.59 0-1.694.467-1.694 2.088 0 .253.03.523.043.792l2.682-1.185z"/><path d="M54.455 19.247c0 .577.103.667.59.712.256.03.51.042.76.072l-.55.327H52.64c.343-.447.402-.49.402-.788v-.332l-.005-8.84H51.88l1.112-.536h2.124c-.46.267-.598.43-.657.95l-.006 8.433"/><path d="M50.394 14.113c.34.28 1.05.877 1.05 2.006 0 1.1-.618 1.62-1.243 2.11-.19.193-.413.402-.413.727 0 .33.224.507.385.64l.537.415c.65.55 1.244 1.056 1.244 2.083 0 1.398-1.35 2.808-3.9 2.808-2.15 0-3.19-1.026-3.19-2.126 0-.535.267-1.293 1.144-1.813.92-.563 2.165-.64 2.832-.683-.208-.27-.446-.55-.446-1.01 0-.253.075-.404.148-.58-.162.015-.325.03-.474.03-1.572 0-2.46-1.176-2.46-2.335 0-.684.31-1.442.95-1.992.844-.698 1.852-.818 2.653-.818h3.056l-.95.537h-.92zm-1.043 6.583c-.12-.016-.195-.016-.343-.016-.135 0-.943.03-1.568.242-.33.123-1.29.485-1.29 1.56 0 1.072 1.034 1.846 2.63 1.846 1.437 0 2.2-.697 2.2-1.634 0-.772-.494-1.18-1.628-1.998zm.42-2.863c.34-.342.37-.815.37-1.083 0-1.066-.63-2.726-1.86-2.726-.38 0-.796.193-1.03.49-.25.31-.326.71-.326 1.095 0 .99.577 2.637 1.845 2.637.37 0 .767-.18 1-.415zm-8.618 2.72c-2.362 0-3.626-1.854-3.626-3.53 0-1.96 1.59-3.64 3.85-3.64 2.183 0 3.552 1.724 3.552 3.533 0 1.767-1.353 3.636-3.776 3.636zM43 19.34c.36-.48.447-1.08.447-1.664 0-1.323-.626-3.844-2.475-3.844a2.07 2.07 0 0 0-1.344.51c-.582.525-.686 1.185-.686 1.833 0 1.483.728 3.93 2.535 3.93.584 0 1.18-.285 1.522-.765zm-9.765 1.212c-2.364 0-3.626-1.853-3.626-3.53 0-1.96 1.59-3.638 3.85-3.638 2.182 0 3.55 1.723 3.55 3.532 0 1.767-1.35 3.636-3.776 3.636zm1.848-1.212c.358-.48.447-1.08.447-1.664 0-1.323-.627-3.844-2.476-3.844-.494 0-.984.194-1.342.51-.584.525-.687 1.185-.687 1.833 0 1.483.732 3.93 2.537 3.93.582 0 1.177-.285 1.52-.765zm-6.453.77l-2.002.458c-.81.128-1.54.24-2.31.24-3.86 0-5.33-2.843-5.33-5.068 0-2.717 2.084-5.236 5.653-5.236.757 0 1.483.11 2.144.292 1.05.294 1.54.658 1.846.87l-1.163 1.105-.49.11.35-.555c-.474-.463-1.344-1.316-2.995-1.316-2.208 0-3.873 1.68-3.873 4.13 0 2.632 1.9 5.11 4.95 5.11.895 0 1.356-.18 1.775-.35v-2.256l-2.112.113 1.12-.602h2.964l-.362.35c-.098.083-.11.11-.14.223-.013.127-.027.533-.027.675v1.707m37.456-.714v3.78h-.753v-9.618h.755v1.095a2.997 2.997 0 0 1 2.43-1.27c1.867 0 3.125 1.413 3.125 3.648 0 2.223-1.26 3.664-3.127 3.664-.983 0-1.864-.505-2.43-1.297zm4.782-2.307c0-1.704-.884-3.003-2.452-3.003-.974 0-1.906.768-2.31 1.438v3.11c.404.672 1.336 1.468 2.31 1.468 1.568 0 2.452-1.31 2.452-3.015zm1.804-6.202h.77v9.664h-.77v-9.664zm9.168 11.622c.16.072.436.116.61.116.46 0 .782-.188 1.07-.85l.55-1.242-2.968-7.022h.84l2.546 6.085 2.52-6.085h.852l-3.618 8.496c-.376.875-.967 1.296-1.778 1.296-.244 0-.565-.043-.753-.1l.127-.694m-2.125-1.968c-.05-.242-.088-.456-.116-.635a4.248 4.248 0 0 1-.037-.546c-.26.38-.63.698-1.1.947a3.03 3.03 0 0 1-1.53.374c-.737 0-1.31-.18-1.72-.547-.407-.367-.612-.863-.612-1.492 0-.626.296-1.136.888-1.525.592-.392 1.357-.586 2.305-.586h1.767v-.87c0-.5-.172-.896-.514-1.18-.344-.288-.826-.433-1.45-.433-.572 0-1.035.133-1.388.39-.35.263-.526.588-.526.98h-.776l-.016-.037c-.027-.53.216-.994.732-1.395.514-.4 1.187-.6 2.016-.6.826 0 1.494.197 1.998.592.503.392.755.957.755 1.697v3.454a4.66 4.66 0 0 0 .193 1.414h-.872zm-2.69-.502c.644 0 1.106-.144 1.578-.43.47-.282.788-.652.955-1.1v-1.35h-1.773c-.678 0-1.24.15-1.68.453-.442.303-.666.67-.666 1.094 0 .4.142.722.424.965.283.246.67.368 1.163.368z"/></g><path d="M22.41 6.2c1.346 0 2.25-.886 2.25-2.16 0-1.262-.904-2.154-2.256-2.154H20.8V6.2h1.61zm-.006-.666h-.848V2.552h.854c.957 0 1.475.66 1.475 1.488 0 .82-.543 1.494-1.48 1.494zm3.745.666V1.886h-.76V6.2h.758zm2.397.078c1.158 0 1.67-.62 1.67-1.34 0-1.603-2.51-1.105-2.51-1.914 0-.317.284-.537.724-.537.454 0 .913.156 1.256.498l.427-.562c-.395-.388-.945-.608-1.61-.608-.952 0-1.573.55-1.573 1.267 0 1.585 2.51 1.022 2.51 1.928 0 .29-.238.595-.86.595a1.853 1.853 0 0 1-1.364-.602l-.427.59c.386.4.962.685 1.757.685zm3.118-.078V4.583h1.145c.9 0 1.404-.614 1.404-1.345 0-.738-.498-1.352-1.403-1.352h-1.9V6.2h.757zm1.04-2.283h-1.04V2.552h1.04c.428 0 .732.272.732.686 0 .407-.304.68-.73.68zm4.16 2.36c1.287 0 2.206-.944 2.206-2.23 0-1.288-.92-2.232-2.205-2.232-1.293 0-2.205.944-2.205 2.23 0 1.288.913 2.233 2.206 2.233zm0-.672c-.873 0-1.43-.673-1.43-1.56 0-.89.557-1.558 1.43-1.558.867 0 1.43.667 1.43 1.56 0 .885-.563 1.558-1.43 1.558zm6.67.595V1.886h-.758v2.988L40.57 1.886h-.775V6.2h.757V3.115l2.25 3.085h.732zm2.38-5.64h-.648l-.905.93h.485l1.067-.93zM45.21 6.2V1.886h-.757V6.2h.757zm3.11 0l1.696-4.314h-.86L47.85 5.372l-1.31-3.486h-.86L47.378 6.2h.944zm5.117 0v-.666h-2.2V4.33h2.155v-.665h-2.154V2.552h2.2v-.666H50.48V6.2h2.957zm3.383 0v-.666h-1.902V1.886h-.756V6.2h2.658zm6.073 0V1.886h-.756v2.988L59.93 1.886h-.775V6.2h.757V3.115l2.25 3.085h.73zm2.937.078c1.287 0 2.205-.945 2.205-2.232 0-1.287-.918-2.23-2.205-2.23-1.294 0-2.206.943-2.206 2.23s.912 2.232 2.206 2.232zm0-.673c-.873 0-1.43-.673-1.43-1.56 0-.89.557-1.558 1.43-1.558.867 0 1.43.667 1.43 1.56 0 .885-.563 1.558-1.43 1.558z" fill="#FFF"/></g></svg><view id="cselo-medicamentos--generico" viewBox="38 297.8 40 40"/><svg viewBox="-10 -10 40 40" width="40" height="40" x="38" y="297.8"><g fill="none" fill-rule="evenodd"><path fill="#FCDE00" d="M10 20c5.523 0 10-4.477 10-10S15.523 0 10 0 0 4.477 0 10s4.477 10 10 10z"/><path fill="#000" d="M15.56 8.013h-2.866c-.197-.255-.366-.53-.588-.75-1.09-1.077-2.867-.866-3.807.44-.84 1.164-.937 3.06-.195 4.287.537.89 1.336 1.326 2.342 1.292.94-.03 1.695-.43 2.14-1.336.06-.125.097-.265.17-.47H9.8V9.203h6.076c-.07.653-.09 1.28-.21 1.884-.68 3.38-3.84 5.435-6.912 4.457-2.073-.66-3.26-2.22-3.636-4.383-.392-2.247.205-4.23 1.878-5.77 2.665-2.458 6.84-1.53 8.302 1.82.103.24.163.496.263.804"/></g></svg><view id="cselo-medicamentos--referencia" viewBox="78 297.8 40 40"/><svg viewBox="-10 -10 40 40" width="40" height="40" x="78" y="297.8"><g fill="none" fill-rule="evenodd"><circle cx="10" cy="10" r="10" fill="#31A087"/><path fill="#FFF" d="M6.91 5.662h3.472c.54 0 1.017.077 1.428.23.41.155.754.365 1.03.63.274.267.48.577.615.932.135.355.203.733.203 1.134 0 .607-.133 1.136-.4 1.59-.265.452-.64.813-1.126 1.084L14.204 15H11.88l-1.736-3.43H8.968V15H6.91V5.662zm3.36 4.214c.392 0 .7-.117.924-.35.224-.233.336-.527.336-.882 0-.383-.112-.686-.336-.91-.224-.224-.532-.336-.924-.336H8.968v2.478h1.302z"/></g></svg><view id="cselo-medicamentos--similar" viewBox="118 297.8 40 40"/><svg viewBox="-10 -10 40 40" width="40" height="40" x="118" y="297.8"><g fill="none" fill-rule="evenodd"><circle cx="10" cy="10" r="10" fill="#BC5C8E"/><path fill="#FFF" d="M7.61 12.214c.12.13.264.264.427.4.163.134.345.258.546.37.2.112.42.203.658.273.24.07.494.105.765.105a1.663 1.663 0 0 0 .91-.273c.13-.09.236-.198.315-.324a.795.795 0 0 0 .118-.427c0-.346-.168-.615-.504-.806-.336-.19-.868-.38-1.596-.567a4.19 4.19 0 0 1-.987-.364 3.138 3.138 0 0 1-.782-.574c-.22-.225-.39-.48-.51-.77a2.46 2.46 0 0 1-.183-.967c0-.392.07-.76.21-1.106.14-.345.352-.65.637-.917.286-.265.64-.475 1.065-.63.425-.153.926-.23 1.505-.23.476 0 .896.05 1.26.147.364.098.674.215.93.35.258.135.468.275.63.42.164.145.288.26.372.343l-1.218 1.344a8.07 8.07 0 0 0-.357-.273 3.337 3.337 0 0 0-.456-.27 3.083 3.083 0 0 0-.553-.21 2.374 2.374 0 0 0-.637-.085 1.508 1.508 0 0 0-.833.26.957.957 0 0 0-.28.28.61.61 0 0 0-.106.342c0 .317.168.574.504.77.336.196.798.36 1.386.49.345.084.684.198 1.015.343.33.144.626.333.887.566.26.233.47.52.63.86.16.342.238.755.238 1.24 0 .42-.093.807-.28 1.162-.187.355-.44.663-.763.924-.322.26-.7.464-1.134.61a4.453 4.453 0 0 1-1.408.216c-.467 0-.89-.044-1.274-.133a5.244 5.244 0 0 1-1.036-.35 4.67 4.67 0 0 1-1.47-1.07l1.357-1.47z"/></g></svg><view id="csetaLeft" viewBox="254 297.8 28 36"/><svg width="28" height="36" viewBox="-10 -10 28 36" x="254" y="297.8"><title>Shape</title><path d="M7.737 14.324l-5.71-6.226c-.037-.04-.036-.155 0-.196l5.71-6.226A1 1 0 0 0 6.263.324L.554 6.55a2.173 2.173 0 0 0 0 2.9l5.71 6.226a1 1 0 1 0 1.473-1.352z" fill="#FFF" fill-rule="evenodd"/></svg><view id="csetaRight" viewBox="371 172 28 36"/><svg width="28" height="36" viewBox="-10 -10 28 36" x="371" y="172"><title>Shape</title><path d="M.263 14.324l5.71-6.226c.037-.04.036-.155 0-.196L.262 1.676A1 1 0 0 1 1.737.324L7.446 6.55c.737.804.74 2.092 0 2.9l-5.71 6.226a1 1 0 1 1-1.473-1.352z" fill="#FFF" fill-rule="evenodd"/></svg><view id="cwindowsstore" viewBox="218 45 103 39"/><svg width="103" height="39" viewBox="-10 -10 103 39" x="218" y="45"><title>Group</title><g fill="#FFF" fill-rule="evenodd"><path d="M7.728 2.762c-.73.258-1.262.478-1.262 1.882v.673l.436-.088v-.584c-.01-.95.236-1.15.874-1.428a2.312 2.312 0 0 0-.048-.458M9 2.46c.03.138.05.285.067.444 1.142-.165 1.12.31 1.12 1.3v.364l.433-.09v-.275c0-1.537-.24-1.95-1.62-1.742"/><path d="M4.498 5.714V3.692c-.014-1.253.63-1.637 1.815-1.916 1.788-.422 1.9.737 1.9 1.475v1.716l.44-.088V3.29C8.647 1.892 8.213.847 6.226 1.3c-1.072.245-2.167.52-2.167 2.35v2.152l.437-.088m5.236 5.41H6.26V8.577l3.473-.495v3.04zm0 3.366l-3.472-.496v-2.668h3.474v3.164zM6.06 11.123H3.368V8.978L6.06 8.6v2.523zm0 2.85l-2.693-.378v-2.27H6.06v2.65zm6.747-9.4L.78 6.99v8.805l12.027 2.42 2.405-.88V5.453l-2.405-.88zM22.375 7V.698h1.82c2.322 0 3.484 1.024 3.484 3.072 0 .973-.324 1.754-.97 2.345-.643.59-1.51.885-2.592.885h-1.745zm1.04-5.414v4.53h.836c.737 0 1.31-.2 1.718-.606.41-.404.613-.975.613-1.714 0-1.473-.762-2.21-2.29-2.21h-.873zm7.294 5.52c-.697 0-1.25-.21-1.666-.63-.414-.422-.622-.98-.622-1.673 0-.756.217-1.346.65-1.77.43-.426 1.013-.638 1.745-.638.704 0 1.25.206 1.644.62.394.412.59.985.59 1.717 0 .718-.212 1.293-.635 1.725-.423.432-.993.648-1.707.648zm.046-3.898c-.4 0-.713.14-.945.417-.23.278-.346.662-.346 1.15 0 .473.117.844.352 1.115.234.27.547.407.94.407.4 0 .71-.133.925-.4.216-.267.324-.646.324-1.138 0-.497-.108-.88-.323-1.15-.214-.27-.523-.403-.924-.403zm9.38-.708L38.81 7h-1.068l-.818-3.05a1.93 1.93 0 0 1-.06-.395h-.02c-.005.1-.03.228-.078.386L35.878 7h-1.045L33.51 2.5h1.055l.817 3.243c.026.097.044.226.053.387h.03a2.09 2.09 0 0 1 .07-.396l.91-3.234h.958l.81 3.256c.025.103.044.232.056.387h.03a2.05 2.05 0 0 1 .065-.387l.8-3.256h.97zm4.76 4.5h-1.02V4.464c0-.84-.296-1.26-.89-1.26a.974.974 0 0 0-.77.348c-.202.233-.303.527-.303.882V7H40.89V2.5h1.024v.747h.018c.337-.568.823-.852 1.46-.852.488 0 .86.158 1.12.476.257.32.386.78.386 1.38V7zm2.266 0H46.14V.338h1.023V7zm3.32.105c-.694 0-1.25-.21-1.663-.63-.416-.42-.623-.978-.623-1.672 0-.756.216-1.346.648-1.77.432-.426 1.014-.638 1.747-.638.703 0 1.25.206 1.643.62.393.412.59.985.59 1.717 0 .718-.212 1.293-.636 1.725-.424.432-.993.648-1.708.648zm.048-3.897c-.397 0-.712.14-.944.417-.23.278-.347.662-.347 1.15 0 .473.115.844.35 1.115.234.27.55.407.94.407.402 0 .71-.133.925-.4.216-.267.323-.646.323-1.138 0-.497-.108-.88-.324-1.15-.215-.27-.523-.403-.925-.403zM57.21 7h-.988v-.703h-.018c-.31.54-.766.808-1.367.808-.442 0-.788-.12-1.04-.36-.25-.24-.375-.558-.375-.953 0-.85.49-1.345 1.468-1.486l1.336-.19c0-.64-.305-.96-.914-.96-.536 0-1.02.183-1.45.552v-.892c.474-.28 1.022-.42 1.643-.42 1.137 0 1.705.558 1.705 1.677V7zm-.984-2.21l-.945.13c-.293.04-.513.11-.66.215-.15.104-.223.286-.223.547a.6.6 0 0 0 .204.468c.138.12.32.182.548.182.31 0 .568-.11.772-.327a1.16 1.16 0 0 0 .304-.824v-.39zM62.54 7h-1.02v-.765h-.016c-.328.58-.834.87-1.516.87-.554 0-.997-.2-1.33-.604-.332-.4-.498-.95-.498-1.644 0-.744.183-1.34.55-1.788.37-.448.86-.672 1.47-.672.608 0 1.048.243 1.324.73h.017V.336h1.02V7zm-1.005-2.057v-.59c0-.318-.104-.59-.312-.81a1.04 1.04 0 0 0-.796-.335c-.38 0-.68.142-.898.426-.22.284-.33.678-.33 1.182 0 .457.105.818.314 1.083.21.263.492.396.846.396.35 0 .633-.128.85-.385.216-.255.325-.58.325-.97zM70.35 7h-1.02V4.464c0-.84-.297-1.26-.892-1.26a.974.974 0 0 0-.77.348c-.2.233-.302.527-.302.882V7h-1.024V2.5h1.024v.747h.017c.337-.568.823-.852 1.46-.852.488 0 .862.158 1.12.476.258.32.387.78.387 1.38V7zm4.695 0h-.99v-.703h-.017c-.31.54-.766.808-1.366.808-.443 0-.79-.12-1.04-.36s-.375-.558-.375-.953c0-.85.49-1.345 1.467-1.486l1.336-.19c0-.64-.304-.96-.914-.96-.536 0-1.02.183-1.45.552v-.892c.475-.28 1.023-.42 1.644-.42 1.136 0 1.705.558 1.705 1.677V7zm-.985-2.21l-.944.13c-.293.04-.514.11-.662.215-.148.104-.222.286-.222.547a.6.6 0 0 0 .205.468c.136.12.318.182.547.182.31 0 .567-.11.77-.327a1.16 1.16 0 0 0 .306-.824v-.39zm-43.867 6.908L28.465 18h-1.182l-1.2-4.408a3.013 3.013 0 0 1-.092-.615h-.015a2.98 2.98 0 0 1-.106.606L24.663 18h-1.208l-1.763-6.302h1.147l1.143 4.614c.047.194.076.396.088.607h.024a3.44 3.44 0 0 1 .123-.61l1.292-4.613h1.076l1.195 4.65c.04.158.073.345.093.562h.018c.01-.147.043-.34.1-.58l1.12-4.633h1.084zm1.274.857a.613.613 0 0 1-.43-.162.535.535 0 0 1-.177-.414.55.55 0 0 1 .178-.42.614.614 0 0 1 .43-.166c.17 0 .318.056.438.167.12.11.18.25.18.418 0 .158-.06.293-.18.406a.618.618 0 0 1-.44.17zM31.972 18h-1.02v-4.5h1.02V18zm5.34 0h-1.02v-2.536c0-.84-.298-1.26-.893-1.26a.974.974 0 0 0-.77.348c-.203.233-.304.527-.304.882V18h-1.024v-4.5h1.024v.747h.018c.337-.568.823-.852 1.46-.852.488 0 .86.158 1.12.476.257.32.386.78.386 1.38V18zm5.334 0h-1.02v-.765h-.017c-.33.58-.836.87-1.52.87-.552 0-.995-.2-1.33-.604-.33-.4-.497-.95-.497-1.644 0-.744.184-1.34.552-1.788.367-.448.857-.672 1.47-.672.606 0 1.047.243 1.323.73h.016V11.34h1.02V18zm-1.007-2.057v-.59c0-.318-.106-.59-.314-.81a1.04 1.04 0 0 0-.795-.335c-.38 0-.68.142-.9.426-.216.284-.325.678-.325 1.182 0 .457.105.818.314 1.083.21.263.49.396.845.396.35 0 .63-.128.848-.385.217-.255.325-.58.325-.97zm4.33 2.162c-.693 0-1.25-.21-1.662-.63-.416-.42-.623-.978-.623-1.672 0-.756.216-1.346.648-1.77.432-.426 1.014-.638 1.747-.638.703 0 1.25.206 1.643.62.393.412.59.985.59 1.717 0 .718-.212 1.293-.636 1.725-.424.432-.993.648-1.708.648zm.05-3.897c-.4 0-.714.14-.946.417-.23.278-.347.662-.347 1.15 0 .473.117.844.352 1.115.233.27.547.407.94.407.4 0 .71-.133.924-.4.216-.267.323-.646.323-1.138 0-.497-.107-.88-.323-1.15-.215-.27-.523-.403-.925-.403zm9.38-.708L54.076 18h-1.068l-.817-3.05a1.93 1.93 0 0 1-.062-.395h-.017c-.004.1-.03.228-.077.386l-.89 3.06H50.1l-1.323-4.5h1.055l.817 3.243c.027.097.044.226.053.387h.03a2.09 2.09 0 0 1 .07-.396l.91-3.234h.96l.807 3.256c.027.103.046.232.058.387h.03a2.05 2.05 0 0 1 .066-.387l.8-3.256h.973zm.476 4.36v-.945c.38.29.8.435 1.26.435.616 0 .924-.182.924-.545a.43.43 0 0 0-.078-.262.755.755 0 0 0-.214-.19 1.676 1.676 0 0 0-.316-.15 44.625 44.625 0 0 1-.406-.15 4.303 4.303 0 0 1-.5-.233 1.507 1.507 0 0 1-.368-.28 1.053 1.053 0 0 1-.222-.352 1.303 1.303 0 0 1-.075-.462c0-.217.053-.408.156-.573.102-.166.24-.305.413-.418a1.98 1.98 0 0 1 .59-.255c.217-.057.445-.085.68-.085.415 0 .787.063 1.115.188v.893a1.882 1.882 0 0 0-1.44-.286.902.902 0 0 0-.265.11.54.54 0 0 0-.172.17.404.404 0 0 0-.062.217c0 .096.02.178.062.246a.56.56 0 0 0 .182.178c.08.053.177.1.29.14.113.045.242.09.39.14.192.08.366.16.52.24.154.084.285.177.393.28a1.1 1.1 0 0 1 .25.36c.06.138.088.3.088.487 0 .23-.05.428-.156.598a1.32 1.32 0 0 1-.422.422c-.174.11-.377.194-.607.248a3.18 3.18 0 0 1-.728.08c-.492 0-.918-.08-1.278-.245zm6.46-.11v-1.077c.096.088.21.167.344.237.134.07.276.13.425.178.15.048.3.086.448.112.15.027.287.04.413.04.44 0 .767-.073.982-.22.216-.146.323-.36.323-.637 0-.15-.033-.28-.105-.39a1.13 1.13 0 0 0-.3-.3 3.396 3.396 0 0 0-.456-.262c-.175-.08-.36-.17-.56-.26a9.23 9.23 0 0 1-.6-.346 2.572 2.572 0 0 1-.48-.39 1.627 1.627 0 0 1-.32-.48 1.567 1.567 0 0 1-.118-.63c0-.295.068-.552.2-.77a1.69 1.69 0 0 1 .53-.54c.217-.143.465-.248.744-.317.278-.07.562-.103.852-.103.66 0 1.14.074 1.442.224v1.033c-.358-.257-.818-.386-1.38-.386-.156 0-.31.015-.464.044-.154.03-.29.077-.413.145a.894.894 0 0 0-.296.26.635.635 0 0 0-.114.38c0 .142.03.264.088.366a.94.94 0 0 0 .258.28c.113.085.25.17.413.25.164.08.35.166.566.26.22.114.427.235.622.36s.366.266.514.418c.147.152.264.322.35.508.087.186.13.397.13.635 0 .32-.064.59-.193.81-.13.22-.304.4-.52.535a2.32 2.32 0 0 1-.756.3 4.25 4.25 0 0 1-.9.09c-.106 0-.236-.007-.39-.023a5.67 5.67 0 0 1-.472-.07 4.345 4.345 0 0 1-.457-.11 1.447 1.447 0 0 1-.347-.15zm7.188.202c-.2.1-.46.15-.787.15-.873 0-1.31-.42-1.31-1.258V14.3h-.75v-.8h.75v-1.042l1.02-.29V13.5h1.077v.8h-1.077v2.25c0 .266.05.457.145.57.097.115.258.172.484.172a.7.7 0 0 0 .448-.15v.81zm2.82.153c-.693 0-1.248-.21-1.662-.63-.415-.42-.622-.978-.622-1.672 0-.756.217-1.346.65-1.77.43-.426 1.013-.638 1.746-.638.703 0 1.25.206 1.643.62.39.412.587.985.587 1.717 0 .718-.21 1.293-.635 1.725-.423.432-.992.648-1.707.648zm.05-3.897c-.4 0-.714.14-.946.417-.232.278-.348.662-.348 1.15 0 .473.117.844.352 1.115.234.27.548.407.94.407.402 0 .71-.133.925-.4.215-.267.322-.646.322-1.138 0-.497-.108-.88-.324-1.15-.216-.27-.524-.403-.926-.403zm5.94.263c-.123-.094-.3-.143-.53-.143-.303 0-.555.136-.757.41-.202.27-.303.642-.303 1.11V18h-1.02v-4.5h1.02v.927h.017c.1-.316.254-.563.46-.74.207-.177.438-.266.693-.266.184 0 .325.03.42.085v.967zm4.452 1.558H79.72c.01.416.14.737.384.962.244.225.58.338 1.008.338.48 0 .922-.144 1.323-.43v.82c-.41.26-.952.387-1.626.387-.664 0-1.183-.204-1.56-.613-.376-.408-.564-.983-.564-1.724 0-.7.207-1.27.62-1.712.416-.44.93-.66 1.546-.66.615 0 1.09.196 1.428.592.338.395.507.945.507 1.648v.39zm-.985-.72c-.002-.367-.09-.652-.26-.856-.17-.202-.402-.304-.7-.304a.99.99 0 0 0-.746.32c-.204.215-.33.494-.376.84H81.8z"/></g></svg></svg><view id="seloempreendedor"/><svg width="76" height="76" viewBox="0 0 65 64" x="340" y="320"><g id="Page-1" fill="none" fill-rule="evenodd"><g id="Selo-empreendedor"><g id="Group-2"><path id="Star-1" fill="#DBA627" d="M32.5 62.205l-3.002 1.787-2.617-2.3-3.283 1.213-2.144-2.735-3.454.598-1.6-3.077-3.505-.037-.997-3.314-3.44-.674-.362-3.438-3.256-1.284.285-3.445-2.96-1.852.922-3.335L.52 37.956l1.53-3.11-2.083-2.78 2.083-2.782-1.53-3.11 2.567-2.358-.923-3.335 2.96-1.85-.284-3.445L8.096 13.9l.362-3.437 3.44-.673.997-3.314 3.506-.038L18 3.362l3.453.597 2.144-2.736 3.284 1.213L29.5.137 32.5 1.924 35.502.137l2.617 2.3 3.283-1.213 2.144 2.735L47 3.36l1.6 3.076 3.505.038.997 3.314 3.44.673.362 3.438 3.256 1.285-.285 3.445 2.96 1.85-.922 3.336 2.566 2.357-1.53 3.11 2.083 2.782-2.083 2.78 1.53 3.11-2.567 2.358.923 3.335-2.96 1.85.284 3.446-3.256 1.284-.362 3.438-3.44.673-.997 3.313-3.506.038L47 60.77l-3.453-.598-2.144 2.735-3.284-1.213-2.618 2.3z"/><ellipse id="Oval-1" fill="#FFF8B0" cx="32.715" cy="31.928" rx="27.55" ry="27.49"/><g id="Group" fill="#DBA627"><path id="Star-2" d="M28.554 14.517l-1.35.938.478-1.57-1.31-.99 1.643-.033.54-1.55.538 1.55 1.645.032-1.312.99.478 1.57zM33.72 14.517l-1.35.938.478-1.57-1.312-.99 1.645-.033.54-1.55.538 1.55 1.645.032-1.312.99.48 1.57zM38.885 14.517l-1.35.938.478-1.57-1.31-.99 1.643-.033.54-1.55.538 1.55 1.645.032-1.313.99.478 1.57z"/></g><path d="M19.78 19.12v1.043h-2.61v1.08h2.35v.998h-2.35v1.09h2.694v1.034H16V19.12h3.78zm5.823 1.943l-1.418 2.866h-.698l-1.41-2.867v3.3h-1.17V19.12h1.583L23.84 22l1.358-2.88h1.576v5.244h-1.17v-3.3zm6.073-1.474c.368.312.552.792.552 1.44 0 .647-.19 1.12-.567 1.42-.376.3-.953.45-1.728.45h-.698v1.464h-1.17V19.12h1.853c.805 0 1.392.156 1.76.47zm-.86 2.062c.14-.157.21-.388.21-.69 0-.303-.09-.518-.272-.645-.183-.128-.467-.192-.852-.192h-.668v1.763h.788c.39 0 .655-.078.795-.236zm6.58-.79c0 .84-.332 1.382-.997 1.627l1.327 1.874h-1.44l-1.163-1.673h-.81v1.674h-1.17V19.12h1.987c.817 0 1.398.138 1.746.413.347.275.52.717.52 1.328zm-1.41.62c.146-.13.218-.335.218-.618 0-.282-.075-.476-.225-.58-.15-.106-.414-.16-.79-.16h-.876v1.554h.855c.4 0 .672-.065.817-.195zm6.393-2.362v1.043h-2.612v1.08h2.348v.998h-2.348v1.09h2.693v1.034h-3.863V19.12h3.782zm2.35 1.047c-.112.092-.168.215-.168.367 0 .153.07.274.206.364.138.09.455.196.953.32.5.122.885.305 1.16.55.275.245.413.603.413 1.073s-.177.853-.53 1.145c-.352.293-.816.44-1.39.44-.83 0-1.58-.308-2.244-.924l.697-.854c.565.495 1.087.743 1.568.743.215 0 .384-.047.506-.14.124-.092.185-.217.185-.375s-.065-.283-.195-.375c-.13-.093-.388-.186-.773-.28-.61-.146-1.057-.335-1.34-.568-.282-.232-.423-.598-.423-1.095 0-.498.18-.882.536-1.152.358-.27.804-.405 1.34-.405.35 0 .7.06 1.05.18.35.12.655.29.915.51l-.592.856c-.456-.346-.926-.518-1.41-.518-.196 0-.35.046-.462.14zm7.237 4.197l-.488-1.133h-2.2l-.487 1.134h-1.245l2.266-5.244h1.132l2.266 5.244h-1.245zm-1.583-3.683l-.66 1.524h1.312l-.652-1.523z" id="EMPRESA" fill="#DBA627"/><path d="M19.107 31.985l-.453-1.052H16.61l-.453 1.052H15l2.106-4.873h1.053l2.104 4.873h-1.157zm-1.47-3.423l-.615 1.415h1.22l-.606-1.415zm7.557.355l-1.318 2.664h-.648l-1.31-2.663v3.068h-1.09v-4.873H22.3l1.256 2.677 1.262-2.678h1.464v4.873h-1.088v-3.068zm2.287-1.805h1.09v4.873h-1.09v-4.873zm5.454 2.39h1.095v1.73c-.485.54-1.154.81-2.01.81-.715 0-1.316-.238-1.802-.712s-.73-1.073-.73-1.795c0-.723.25-1.326.744-1.81.495-.483 1.092-.725 1.792-.725s1.307.23 1.823.69l-.565.816c-.218-.19-.42-.322-.603-.394-.184-.072-.383-.108-.597-.108-.414 0-.762.14-1.046.422-.283.28-.425.652-.425 1.112 0 .46.136.83.408 1.105.272.277.596.415.972.415.377 0 .69-.072.942-.216v-1.34zm5.494 2.483l-.453-1.052h-2.043l-.453 1.052h-1.16l2.107-4.873h1.053l2.106 4.873h-1.158zm-1.47-3.423l-.615 1.415h1.22l-.606-1.415zm8.757-.812c.465.425.697 1.016.697 1.774s-.227 1.357-.68 1.8c-.453.44-1.144.66-2.074.66H41.99v-4.872h1.724c.87 0 1.536.212 2 .638zm-.8 2.897c.27-.25.402-.616.402-1.095 0-.48-.133-.847-.4-1.105-.268-.258-.678-.387-1.23-.387h-.608v2.963h.69c.497 0 .88-.125 1.146-.376zm5.75-2.24c-.28-.305-.62-.46-1.028-.46-.407 0-.75.155-1.03.46-.277.308-.417.68-.417 1.114 0 .435.14.805.418 1.11.28.304.622.456 1.03.456.406 0 .748-.152 1.027-.457.28-.305.42-.675.42-1.11 0-.434-.14-.805-.42-1.112zm-1.032 3.627c-.72 0-1.327-.24-1.82-.72-.492-.482-.74-1.08-.74-1.797 0-.716.248-1.314.74-1.795.493-.48 1.1-.722 1.82-.722s1.328.24 1.82.722c.493.48.74 1.08.74 1.795 0 .716-.247 1.315-.74 1.796-.492.48-1.1.72-1.82.72z" id="AMIGA-DO" fill="#DBA627"/><path d="M15.9 36.568v-1.4h3.803v4.765c0 .87-.224 1.523-.674 1.955-.45.432-1.027.648-1.73.648-.88 0-1.645-.338-2.3-1.014l.847-1.17c.44.473.898.71 1.38.71.23 0 .426-.09.59-.266.164-.178.245-.445.245-.8v-3.428H15.9zm10.503.543c-.418-.46-.932-.69-1.542-.69-.608 0-1.122.23-1.54.69-.418.46-.627 1.017-.627 1.668 0 .652.21 1.206.627 1.662.418.457.932.685 1.54.685.61 0 1.125-.228 1.543-.685.418-.456.627-1.01.627-1.662 0-.65-.21-1.207-.627-1.667zm-1.547 5.436c-1.08 0-1.99-.36-2.728-1.08-.738-.723-1.108-1.62-1.108-2.693s.37-1.97 1.108-2.69c.74-.722 1.648-1.083 2.728-1.083 1.08 0 1.99.36 2.728 1.082.74.72 1.108 1.618 1.108 2.69 0 1.074-.37 1.97-1.108 2.693-.74.72-1.648 1.08-2.728 1.08zm7.745-2.728l1.86-4.65h1.768l-2.937 7.305h-1.38l-2.936-7.306h1.767l1.86 4.65zm9.763-4.65v1.452h-3.637v1.505h3.27v1.39h-3.27v1.516h3.752v1.443h-5.383v-7.306h5.268zm8.11 2.706L48.5 41.867h-.972l-1.965-3.993v4.6h-1.63v-7.307h2.206l1.882 4.014 1.89-4.013h2.196v7.306h-1.63v-4.6z" id="JOVEM" fill="#DBA627"/><path d="M17.143 45.068v.59h-1.48v.613h1.33v.567h-1.33v.617h1.527v.586H15v-2.972h2.143zm3.3 1.1l-.804 1.626h-.396l-.8-1.625v1.87h-.663v-2.972h.898l.766 1.633.77-1.632h.892v2.972h-.663v-1.87zm3.442-.834c.21.177.313.45.313.816 0 .367-.107.636-.32.806-.215.17-.542.255-.98.255H22.5v.83h-.662v-2.972h1.05c.457 0 .79.09.997.266zm-.487 1.17c.08-.09.12-.22.12-.392 0-.172-.052-.293-.156-.366-.103-.072-.264-.108-.482-.108h-.38v1h.448c.22 0 .37-.045.45-.135zm3.73-.45c0 .477-.19.784-.566.923l.753 1.063h-.817l-.66-.948h-.458v.948h-.663v-2.972h1.126c.463 0 .792.078.99.234.196.156.295.407.295.753zm-.8.354c.082-.074.124-.19.124-.35 0-.16-.043-.27-.128-.33s-.234-.09-.446-.09h-.498v.88h.485c.227 0 .38-.037.463-.11zm3.623-1.34v.59h-1.48v.613h1.332v.567h-1.33v.617h1.526v.586h-2.19v-2.972h2.143zm2.782 0v.59h-1.48v.613h1.33v.567h-1.33v.617h1.527v.586h-2.19v-2.972h2.142zm2.718 0h.663v2.972h-.663l-1.416-1.862v1.862h-.664v-2.972h.62l1.46 1.914v-1.914zm3.665.39c.284.26.425.62.425 1.08 0 .463-.138.83-.414 1.098-.277.27-.698.404-1.265.404h-1.016v-2.972h1.05c.53 0 .938.13 1.22.39zm-.487 1.766c.163-.153.245-.376.245-.668 0-.292-.082-.516-.245-.674-.163-.157-.413-.236-.75-.236h-.37v1.808h.42c.304 0 .537-.077.7-.23zm3.63-2.156v.59h-1.48v.613h1.33v.567h-1.33v.617h1.526v.586h-2.19v-2.972h2.144zm2.908.39c.284.26.425.62.425 1.08 0 .463-.137.83-.413 1.098-.277.27-.698.404-1.265.404h-1.017v-2.972h1.05c.53 0 .938.13 1.22.39zm-.487 1.766c.162-.153.244-.376.244-.668 0-.292-.082-.516-.245-.674-.164-.157-.414-.236-.75-.236h-.37v1.808h.42c.303 0 .536-.077.7-.23zm3.505-1.365c-.17-.188-.38-.282-.627-.282-.248 0-.457.094-.627.28-.17.188-.254.414-.254.68 0 .264.085.49.255.675.17.186.38.28.628.28s.457-.094.627-.28c.17-.185.255-.41.255-.676 0-.265-.085-.49-.255-.678zm-.63 2.21c-.438 0-.808-.147-1.11-.44-.3-.293-.45-.658-.45-1.095 0-.436.15-.8.45-1.095.302-.293.672-.44 1.11-.44.44 0 .81.147 1.11.44.3.294.452.66.452 1.095 0 .437-.15.802-.45 1.095-.302.293-.672.44-1.11.44zm4.534-2.015c0 .476-.19.783-.567.922l.753 1.063h-.816l-.66-.948h-.46v.948h-.662v-2.972h1.127c.462 0 .79.078.988.234.197.156.296.407.296.753zm-.8.353c.082-.074.123-.19.123-.35 0-.16-.043-.27-.128-.33s-.234-.09-.446-.09h-.5v.88h.486c.227 0 .38-.037.464-.11z" id="EMPREENDEDOR" fill="#DBA627"/></g></g></g></svg><view id="logo-buscape-company"/><svg xmlns="http://www.w3.org/2000/svg" width="59" height="25" viewBox="0 0 59 25" x="270" y="370"><title>logo-buscape-company</title><g fill="none" fill-rule="evenodd"><path d="M5.483 21.162a2.35 2.35 0 0 1-.765.562 2.458 2.458 0 0 1-1.056.213c-.373 0-.712-.06-1.015-.184a2.215 2.215 0 0 1-.77-.506 2.2 2.2 0 0 1-.486-.776c-.11-.3-.17-.63-.17-.987 0-.338.06-.656.18-.954A2.367 2.367 0 0 1 2.68 17.22c.296-.128.625-.193.985-.193.394 0 .74.07 1.04.21.3.137.557.326.77.564l-.59.567a1.525 1.525 0 0 0-.51-.41c-.2-.097-.436-.147-.71-.147a1.5 1.5 0 0 0-.645.135c-.19.09-.35.212-.48.367-.13.156-.23.335-.3.537a1.91 1.91 0 0 0 0 1.253c.07.203.17.38.3.537.13.156.29.28.48.373.19.093.405.14.645.14.274 0 .52-.052.735-.155.217-.103.396-.24.536-.412l.55.576zm2.85 0c.24 0 .458-.048.65-.144a1.54 1.54 0 0 0 .49-.378c.135-.155.237-.334.306-.537a1.853 1.853 0 0 0 0-1.233 1.65 1.65 0 0 0-.31-.54 1.57 1.57 0 0 0-.49-.383 1.408 1.408 0 0 0-.647-.145c-.24 0-.457.05-.65.145a1.528 1.528 0 0 0-.49.377 1.64 1.64 0 0 0-.306.537 1.894 1.894 0 0 0 0 1.24c.07.198.174.377.31.536.137.16.3.287.49.383.19.095.406.143.646.143m0 .775c-.36 0-.69-.064-.99-.193a2.35 2.35 0 0 1-.776-.532 2.51 2.51 0 0 1-.51-.78 2.43 2.43 0 0 1-.185-.95c0-.338.062-.654.185-.95.123-.294.294-.554.51-.78.217-.225.475-.402.776-.53.3-.13.63-.195.99-.195.353 0 .68.065.98.194a2.414 2.414 0 0 1 1.296 1.313c.122.295.184.61.184.95 0 .337-.062.654-.185.948a2.414 2.414 0 0 1-2.277 1.506m3.482-3.76v-.53c0-.15-.003-.308-.01-.474h.86l.03.696a2.39 2.39 0 0 1 .21-.263 1.63 1.63 0 0 1 .736-.465c.166-.053.354-.08.567-.08.36 0 .66.072.896.215.236.144.422.35.555.622.187-.22.415-.413.685-.582.27-.17.605-.253 1.005-.253.6 0 1.044.177 1.33.532.288.352.43.83.43 1.424v2.773h-.9v-2.704c0-.43-.084-.746-.254-.95-.17-.2-.42-.302-.745-.302-.188 0-.36.04-.517.116a1.33 1.33 0 0 0-.68.745c-.063.17-.095.346-.095.53v2.57h-.9v-2.704c0-.43-.086-.746-.256-.95-.17-.2-.413-.302-.734-.302-.247 0-.453.053-.62.16a1.268 1.268 0 0 0-.405.412c-.103.17-.176.362-.22.58a3.37 3.37 0 0 0-.064.657V21.8h-.9v-3.62zm9.395 2.615c.106.085.26.168.46.248.2.08.45.12.75.12.226 0 .435-.042.625-.125.19-.083.353-.2.49-.348.137-.15.24-.323.315-.522.073-.2.11-.418.11-.656a2.6 2.6 0 0 0-.075-.636c-.05-.2-.13-.374-.24-.527a1.193 1.193 0 0 0-.425-.365 1.386 1.386 0 0 0-.64-.134 1.3 1.3 0 0 0-.82.264c-.228.176-.388.433-.48.77-.034.107-.054.22-.06.344a6.76 6.76 0 0 0-.01.38v1.185zm-.892-2.615v-.532c0-.15-.003-.306-.01-.472h.86l.03.656c.048-.06.115-.132.2-.22.088-.084.196-.167.326-.247a1.947 1.947 0 0 1 1.055-.288c.36 0 .67.067.934.2.263.132.482.31.655.536.173.226.3.484.385.776.083.29.125.6.125.923 0 .417-.07.78-.215 1.083a2.24 2.24 0 0 1-1.33 1.2 2.606 2.606 0 0 1-.835.142c-.314 0-.566-.03-.756-.094-.19-.063-.368-.13-.535-.204v2.146h-.893V18.18zm8.484 1.43a3.996 3.996 0 0 0-.42-.05c-.1-.005-.207-.01-.32-.018a6.095 6.095 0 0 0-.33-.01c-.254 0-.46.03-.615.09a1.05 1.05 0 0 0-.37.223.71.71 0 0 0-.186.298c-.03.11-.05.214-.05.314 0 .25.09.442.26.57.176.13.416.195.72.195a1.462 1.462 0 0 0 .91-.328c.123-.1.22-.215.293-.348a.833.833 0 0 0 .11-.408v-.527zm.01 1.632a1.556 1.556 0 0 1-.685.517c-.284.11-.575.166-.875.166-.194 0-.386-.024-.576-.074a1.497 1.497 0 0 1-.52-.25 1.302 1.302 0 0 1-.38-.446 1.416 1.416 0 0 1-.145-.67c0-.498.177-.895.527-1.194.35-.298.856-.447 1.516-.447.106 0 .22.004.34.01l.34.02.28.02c.08.007.137.013.17.02v-.17c0-.344-.105-.59-.315-.74-.21-.15-.495-.223-.855-.223-.354 0-.634.048-.84.144a3.32 3.32 0 0 0-.52.293l-.42-.607c.08-.067.176-.133.29-.2.113-.065.246-.127.4-.183.153-.055.326-.102.52-.138.193-.036.416-.055.67-.055.6 0 1.072.144 1.415.432.344.287.516.696.516 1.226v2.69c0 .16.003.3.01.41h-.84l-.02-.555zm2.08-3.062v-.53c0-.15-.003-.308-.01-.474h.86l.03.696c.06-.08.135-.167.22-.263.088-.1.195-.186.32-.266a1.9 1.9 0 0 1 1.02-.278c.61 0 1.06.176 1.35.527.296.35.44.828.44 1.43V21.8h-.9v-2.704c0-.43-.09-.746-.28-.95-.185-.2-.45-.302-.79-.302-.26 0-.475.053-.65.16a1.232 1.232 0 0 0-.414.412c-.103.17-.178.36-.225.576a3.11 3.11 0 0 0-.07.66V21.8h-.9v-3.62zm5.263 4.752c.067.06.144.112.23.158.087.047.193.07.32.07a.525.525 0 0 0 .276-.07.692.692 0 0 0 .21-.213c.065-.096.125-.212.18-.348l.197-.474.12-.298-2.08-4.584h1.03l1.5 3.49 1.32-3.49h.98l-1.86 4.503a15.56 15.56 0 0 0-.265.7c-.09.255-.2.497-.334.725-.134.23-.297.42-.49.572-.194.152-.437.23-.73.23-.234 0-.43-.033-.59-.096-.16-.062-.3-.147-.42-.252l.41-.626zM3.625 12.306c.125.052.262.09.413.117.15.026.362.038.632.038.593 0 1.054-.19 1.38-.57.33-.384.493-.885.493-1.505 0-.227-.03-.45-.086-.667a1.923 1.923 0 0 0-.257-.582 1.38 1.38 0 0 0-.445-.418 1.273 1.273 0 0 0-.663-.163c-.5 0-.87.137-1.108.41-.24.275-.36.64-.36 1.094v2.247zM1.378 3.732h2.247v3.613c.208-.217.49-.388.85-.512s.715-.186 1.07-.186c.52 0 .982.098 1.388.295.406.196.746.462 1.022.798s.486.724.632 1.163c.146.44.22.907.22 1.403 0 .59-.098 1.132-.29 1.628a3.51 3.51 0 0 1-.835 1.272c-.364.35-.81.625-1.342.82-.53.198-1.134.296-1.81.296a8.852 8.852 0 0 1-1.77-.17 11.677 11.677 0 0 1-1.382-.357V3.732zm8.738 3.07h2.248v4.186c0 .414.1.74.304.977.203.238.502.357.897.357a1.353 1.353 0 0 0 1.06-.48c.126-.145.22-.316.282-.513a1.97 1.97 0 0 0 .094-.606V6.802h2.233v7.272H15.08l-.064-.775c-.24.277-.553.507-.944.69-.39.18-.798.27-1.225.27-.842 0-1.508-.25-1.997-.745-.49-.497-.734-1.23-.734-2.202v-4.51zm9.534 5.024c.24.217.555.398.945.543.39.142.767.214 1.13.214.334 0 .61-.04.828-.124.22-.08.328-.242.328-.48a.488.488 0 0 0-.07-.255.653.653 0 0 0-.256-.217 3.218 3.218 0 0 0-.522-.21 19.024 19.024 0 0 0-.85-.248 5.624 5.624 0 0 1-.835-.286 3.026 3.026 0 0 1-.733-.442 2.045 2.045 0 0 1-.515-.636 1.84 1.84 0 0 1-.196-.868c0-.34.078-.65.234-.923.156-.273.372-.512.648-.713a3.08 3.08 0 0 1 .983-.465c.38-.108.787-.163 1.224-.163.624 0 1.17.07 1.638.21.468.14.9.343 1.295.612l-.95 1.473a4.865 4.865 0 0 0-.82-.42 2.75 2.75 0 0 0-1.04-.187c-.34 0-.592.05-.748.147-.157.1-.235.232-.235.397 0 .238.162.413.484.527.322.114.76.243 1.31.387.75.21 1.293.494 1.63.855.338.362.507.843.507 1.442 0 .403-.09.75-.273 1.04-.182.29-.427.53-.734.72a3.48 3.48 0 0 1-1.046.426 5.13 5.13 0 0 1-1.194.14 6.392 6.392 0 0 1-1.857-.264c-.583-.176-1.056-.445-1.42-.807l1.108-1.426zm13.343 1.287c-.302.33-.7.615-1.194.852-.496.238-1.08.357-1.757.357a4.36 4.36 0 0 1-1.615-.287 3.56 3.56 0 0 1-1.242-.806 3.692 3.692 0 0 1-.803-1.235 4.128 4.128 0 0 1-.29-1.566 3.866 3.866 0 0 1 1.117-2.745c.348-.35.764-.628 1.248-.83a4.068 4.068 0 0 1 1.584-.302c.666 0 1.243.108 1.732.326.49.216.9.505 1.233.867l-1.36 1.457a2.642 2.642 0 0 0-.607-.496c-.24-.145-.557-.218-.952-.218-.27 0-.512.054-.725.163a1.773 1.773 0 0 0-.89 1.038c-.078.234-.117.48-.117.738 0 .24.04.473.117.706.078.232.193.44.344.62.15.18.33.328.545.442.213.114.455.17.726.17.385 0 .708-.075.968-.225.26-.15.468-.31.624-.487l1.31 1.458zm5.275-2.25a4.743 4.743 0 0 0-.796-.06c-.624 0-1.066.087-1.326.263a.847.847 0 0 0-.39.744c0 .6.364.9 1.092.9.177 0 .352-.03.523-.086.173-.056.324-.137.454-.24.13-.103.236-.233.32-.388.083-.155.125-.335.125-.542v-.59zm0 2.53c-.25.29-.565.51-.944.666a3.34 3.34 0 0 1-1.272.23c-.26 0-.533-.036-.82-.11a2.415 2.415 0 0 1-.795-.363c-.245-.17-.448-.4-.61-.69-.16-.29-.24-.65-.24-1.085 0-.424.085-.8.257-1.132.172-.33.408-.606.71-.828.3-.223.657-.39 1.068-.505a5 5 0 0 1 1.335-.17c.26 0 .523.005.788.016.266.01.44.025.523.046v-.157a.896.896 0 0 0-.118-.473 1.035 1.035 0 0 0-.31-.325c-.132-.087-.28-.15-.446-.186a2.498 2.498 0 0 0-.53-.056c-.5 0-.914.062-1.242.186a4.008 4.008 0 0 0-.834.42l-.92-1.365c.155-.113.332-.227.53-.34.197-.114.43-.218.702-.31.27-.094.574-.17.913-.226a7.075 7.075 0 0 1 1.162-.087c1.113 0 1.935.298 2.466.892.533.594.798 1.393.798 2.395v4.234H38.33l-.062-.682zm6.022-1.243c.293.198.724.296 1.297.296.55 0 .985-.184 1.302-.55.316-.367.474-.856.474-1.466 0-.237-.028-.47-.085-.697a1.788 1.788 0 0 0-.267-.597 1.33 1.33 0 0 0-.468-.41 1.492 1.492 0 0 0-.71-.156c-.25 0-.47.046-.663.14a1.435 1.435 0 0 0-.484.37c-.13.156-.23.332-.297.528a1.85 1.85 0 0 0-.1.605v1.938zm-2.23-5.348h2.153c.02.135.037.266.047.396l.03.395c.24-.3.548-.53.922-.69a2.95 2.95 0 0 1 1.17-.24c.53 0 1 .103 1.405.31a3 3 0 0 1 1.014.83 3.6 3.6 0 0 1 .61 1.193c.136.45.204.912.204 1.388 0 .672-.115 1.256-.344 1.752-.23.496-.526.905-.89 1.224-.364.32-.775.56-1.233.714-.458.155-.91.232-1.357.232a3.41 3.41 0 0 1-.874-.093 11.95 11.95 0 0 1-.625-.186v3.148h-2.23V6.802zM55.9 9.67c0-.154-.03-.312-.092-.472a1.38 1.38 0 0 0-.28-.442 1.503 1.503 0 0 0-.47-.334 1.57 1.57 0 0 0-.67-.13c-.26 0-.49.043-.687.13-.196.088-.36.2-.49.334s-.23.28-.296.442c-.068.16-.1.318-.1.472H55.9zm1.968 3.613a7.864 7.864 0 0 0-.375.256 3.44 3.44 0 0 1-.648.347c-.265.114-.58.214-.944.302-.362.087-.78.13-1.246.13-.624 0-1.186-.094-1.685-.286a3.66 3.66 0 0 1-1.273-.798 3.367 3.367 0 0 1-.796-1.233 4.447 4.447 0 0 1-.272-1.59c0-.506.085-.994.257-1.465.172-.47.42-.882.74-1.233.324-.35.72-.633 1.188-.845.468-.212.998-.318 1.59-.318.594 0 1.114.104 1.562.31.447.207.824.494 1.13.86.308.368.54.807.696 1.32.157.51.234 1.07.234 1.68v.373h-5.21c.01.393.183.736.52 1.03.34.296.805.443 1.398.443.583 0 1.057-.085 1.42-.256.365-.17.63-.318.797-.442l.92 1.41z" fill="#FFF"/><path d="M55.255 4.352l-2.41.78c-.414.113-.853-.066-1.03-.444l-.005-.008c-.177-.378-.033-.828.322-1.07l2.15-1.333 1.568-.974c.63-.353 1.433-.258 1.892.296 0 0 .185.217.258.57.133.71-.308 1.36-.985 1.613l-1.76.568z" fill="#ED1C24"/></g></svg></svg>