<svg xmlns="http://www.w3.org/2000/svg" viewBox="0 0 16 16">
  <path fill-rule="evenodd" d="M9.47820306,10.8895592 C8.49707656,11.5887429 7.2965654,12 6,12 C2.6862915,12 0,9.3137085 0,6 C0,2.6862915 2.6862915,0 6,0 C9.3137085,0 12,2.6862915 12,6 C12,7.29509542 11.5896749,8.49435429 10.8919362,9.47486516 L15.7077033,14.2906323 C16.0942873,14.6772163 16.0999764,15.3160704 15.7094522,15.7065947 C15.3162052,16.0998417 14.6849799,16.096336 14.2934897,15.7048458 L9.47820306,10.8895592 L9.47820306,10.8895592 Z M6,10 C8.209139,10 10,8.209139 10,6 C10,3.790861 8.209139,2 6,2 C3.790861,2 2,3.790861 2,6 C2,8.209139 3.790861,10 6,10 Z"/>
</svg>
